<?xml version="1.0" encoding="UTF-8"?>
<svg version="1.1" xmlns="http://www.w3.org/2000/svg" width="865" height="339">
<path d="M0 0 C10.82819077 7.99766371 20.62471961 17.35108739 30.41015625 26.5625 C33.50231677 29.46832371 36.65670999 32.28853085 39.87109375 35.05859375 C43.02098714 37.78937451 46.10510474 40.59309533 49.19921875 43.38671875 C50.82327337 44.8516011 52.45053785 46.31293831 54.08203125 47.76953125 C59.24401608 52.38364373 64.32290107 57.07891783 69.375 61.8125 C78.03605267 70.09064696 78.03605267 70.09064696 87.375 77.5625 C92.64844264 82.28084341 97.3360817 89.27061005 98.00726891 96.43279648 C98.01062059 97.4341576 98.01397228 98.43551872 98.01742554 99.46722412 C98.03022049 101.19975433 98.03022049 101.19975433 98.04327393 102.96728516 C98.04191437 104.85471436 98.04191437 104.85471436 98.04052734 106.78027344 C98.04651533 108.12600069 98.0533215 109.47172451 98.06088257 110.81744385 C98.07852527 114.46641445 98.08323729 118.11529121 98.08451414 121.76430035 C98.08593762 124.04706225 98.090211 126.32980045 98.09550858 128.61255646 C98.1140052 136.58514414 98.12217991 144.55766501 98.12060547 152.53027344 C98.11940511 159.94718256 98.1404874 167.36380019 98.1720928 174.7806356 C98.1983011 181.15960671 98.20897082 187.53848291 98.20769465 193.91750741 C98.20718622 197.72234871 98.21280245 201.52693104 98.23405075 205.33171844 C98.25350956 208.9138403 98.25350619 212.49545825 98.23901749 216.07759857 C98.23595139 218.0069576 98.25255349 219.93631708 98.26989746 221.86560059 C98.20828229 230.43181121 96.98121054 236.86106646 91.375 243.5 C82.7005024 250.728748 75.51378734 251.9927361 64.5625 252.3125 C63.43932373 252.35044678 62.31614746 252.38839355 61.15893555 252.42749023 C42.36510644 252.97122038 23.54927122 252.77012578 4.75 252.6875 C4.73541748 253.27128418 4.72083496 253.85506836 4.70581055 254.45654297 C4.63030915 257.15911959 4.53399662 259.86059464 4.4375 262.5625 C4.41494141 263.4803125 4.39238281 264.398125 4.36914062 265.34375 C4.03399178 273.99668393 2.64707256 282.99352574 -3.25 289.6875 C-6.88550647 292.01872167 -10.93262286 294.12183209 -15.25 294.6875 C-21.83714202 292.31895699 -26.93339645 288.13576817 -30.1796875 281.90234375 C-33.25766333 274.29534633 -32.98066887 265.77672109 -33.25 257.6875 C-32.59 257.6875 -31.93 257.6875 -31.25 257.6875 C-31.58 256.3675 -31.91 255.0475 -32.25 253.6875 C-41.67907821 253.03763969 -51.06595003 252.59817251 -60.51953125 252.66015625 C-61.81502396 252.66841934 -61.81502396 252.66841934 -63.13668823 252.67684937 C-66.67156296 252.70424007 -70.20626095 252.73930774 -73.7409668 252.78344727 C-104.34793645 253.13872422 -104.34793645 253.13872422 -113.25 245.6875 C-125.48288911 231.20458689 -121.39980287 207.19555533 -121.3828125 189.40625 C-121.38348764 186.89619945 -121.38445941 184.38614896 -121.38571167 181.87609863 C-121.38717658 176.64851247 -121.38507172 171.42094352 -121.38037109 166.19335938 C-121.37522041 160.17367879 -121.37671214 154.15403991 -121.3821975 148.13436079 C-121.38729905 142.29896633 -121.3867387 136.4635846 -121.38381577 130.62818909 C-121.38315119 128.16272476 -121.38395844 125.69725957 -121.38629532 123.23179626 C-121.38884503 119.7892734 -121.38494966 116.34681496 -121.37939453 112.90429688 C-121.38141876 111.89737793 -121.38344299 110.89045898 -121.38552856 109.85302734 C-121.35187047 98.54919557 -120.80569841 89.84381445 -112.9375 81.125 C-112.050625 80.320625 -111.16375 79.51625 -110.25 78.6875 C-108.97559248 77.39935964 -107.70510315 76.10733682 -106.4375 74.8125 C-103.23566632 71.61066632 -99.92521933 68.60296675 -96.49609375 65.6484375 C-91.66009182 61.42639755 -86.96894704 57.03948154 -82.25 52.6875 C-81.72212891 52.20087891 -81.19425781 51.71425781 -80.65039062 51.21289062 C-78.50022325 49.23033678 -76.35032098 47.24751092 -74.20336914 45.26147461 C-71.33559656 42.60875258 -68.46066234 39.96443738 -65.57421875 37.33203125 C-64.97601318 36.78474365 -64.37780762 36.23745605 -63.76147461 35.67358398 C-62.60949314 34.61995603 -61.45543902 33.56858858 -60.29907227 32.51977539 C-57.38342269 29.91563614 -57.38342269 29.91563614 -55.25 26.6875 C-54.16138672 26.04554687 -54.16138672 26.04554687 -53.05078125 25.390625 C-49.81214519 23.42124519 -47.17614922 21.02719428 -44.4375 18.4375 C-43.37424321 17.44863212 -42.31044069 16.46035068 -41.24609375 15.47265625 C-40.73288574 14.9945752 -40.21967773 14.51649414 -39.69091797 14.02392578 C-14.65916825 -9.19257675 -14.65916825 -9.19257675 0 0 Z " fill="#FEE5AE" transform="translate(134.25,32.3125)"/>
<path d="M0 0 C5.95659473 5.40280701 7.29521154 13.86849517 7.72265625 21.5625 C6.87655891 43.12713472 -0.87084438 62.94622372 -9.27734375 82.5625 C-9.62700195 83.38057129 -9.97666016 84.19864258 -10.33691406 85.04150391 C-19.30252909 105.72141453 -31.82120551 124.85321022 -46.98779297 141.50268555 C-51.03457665 145.99931677 -51.03457665 145.99931677 -53.27734375 151.5625 C-52.92513798 158.00283412 -51.06095058 163.56476957 -46.65234375 168.3125 C-42.08325244 170.7172849 -37.66570961 171.0952079 -32.6328125 169.97265625 C-22.33891672 166.54135766 -11.31626354 160.64033957 -6.27734375 150.5625 C-6.10246152 148.95986975 -5.97944931 147.3514323 -5.8828125 145.7421875 C-2.77628746 98.78776329 6.51485242 33.99669812 43.03515625 0.4375 C48.48548964 -3.36505818 54.03442221 -5.25886207 60.72265625 -4.4375 C67.48312313 -2.65842977 71.05418307 0.34803742 74.57421875 6.34765625 C82.74038197 22.09668531 77.44529044 41.05045328 72.53125 57.05859375 C64.35118682 82.51718334 52.1806977 107.4411401 35.72265625 128.5625 C34.98273438 129.51898438 34.2428125 130.47546875 33.48046875 131.4609375 C30.8959648 134.72927907 28.31719024 137.93208896 25.45703125 140.96484375 C21.42808808 145.42344694 19.19838327 148.49232758 19.03515625 154.625 C19.39834163 159.92202444 20.65347541 164.68514516 22.72265625 169.5625 C28.35253095 171.16609136 33.16803517 172.36900758 38.65234375 169.87109375 C45.90868791 165.28453659 56.71027319 156.36527169 59.27119446 147.70819092 C59.41155624 147.01397034 59.55191803 146.31974976 59.6965332 145.60449219 C59.86043045 144.81226257 60.0243277 144.02003296 60.19319153 143.20379639 C60.44947578 141.9195578 60.44947578 141.9195578 60.7109375 140.609375 C61.09169375 138.77341611 61.47255678 136.93747936 61.85351562 135.1015625 C62.44197358 132.22617057 63.02751702 129.35021929 63.61010742 126.47363281 C70.91146826 90.58125326 70.91146826 90.58125326 79.47265625 83.1875 C83.56790872 81.13987377 86.13187462 80.63536955 90.72265625 80.5625 C93.6942566 81.91910016 95.42549066 83.26533441 97.72265625 85.5625 C98.78241386 94.84229055 95.88528454 103.1784697 93.30557251 111.98757935 C92.00479569 116.44062094 90.75176729 120.90688358 89.50390625 125.375 C89.25832474 126.25386368 89.01274323 127.13272736 88.75971985 128.03822327 C86.73797621 135.35000131 85.00378995 142.6798351 83.53515625 150.125 C83.33962158 151.10283447 83.14408691 152.08066895 82.94262695 153.08813477 C80.9639992 162.16192531 80.9639992 162.16192531 83.72265625 170.5625 C102.35535245 160.12176506 109.35445702 135.03867553 114.79077148 115.89746094 C115.48109882 113.4333958 116.16202604 110.96667244 116.83227539 108.49707031 C122.13159634 89.22828147 122.13159634 89.22828147 129.72265625 82.5625 C134.01002667 80.41881479 137.13191673 80.16531841 141.72265625 81.5625 C144.2201331 83.45248248 145.45991223 84.73864163 146.4140625 87.73046875 C146.81303864 91.39195865 146.15217541 94.57493089 145.34765625 98.125 C145.1770166 98.91076416 145.00637695 99.69652832 144.83056641 100.50610352 C143.49590822 106.49556091 142.01452462 112.44747759 140.51953125 118.3984375 C140.32253632 119.18276657 140.12554138 119.96709564 139.9225769 120.77519226 C138.92401493 124.74215167 137.91692359 128.70669841 136.89697266 132.66821289 C132.7900548 148.28043242 132.7900548 148.28043242 131.59765625 164.3125 C131.61570312 165.31796875 131.63375 166.3234375 131.65234375 167.359375 C131.68714844 168.44992188 131.68714844 168.44992188 131.72265625 169.5625 C136.74471369 168.86252297 138.63229794 165.59856896 141.5703125 161.7578125 C143.94529117 158.23198209 145.98292173 154.65958133 147.91015625 150.875 C148.21856445 150.27743896 148.52697266 149.67987793 148.84472656 149.06420898 C155.34184826 135.7409756 158.47427945 121.07958856 161.77490234 106.72290039 C165.69955011 89.74784623 165.69955011 89.74784623 170.72265625 83.5625 C174.71507277 81.1311643 177.4521498 80.32722103 182.09765625 81.1875 C184.72265625 82.5625 184.72265625 82.5625 186.72265625 85.5625 C186.953125 87.61328125 186.953125 87.61328125 186.91015625 89.875 C186.90371094 90.61363281 186.89726563 91.35226563 186.890625 92.11328125 C186.69450569 94.97297451 186.23120116 97.74312702 185.72265625 100.5625 C186.29113281 99.83804688 186.85960937 99.11359375 187.4453125 98.3671875 C200.17165083 82.43270712 200.17165083 82.43270712 208.08984375 81.19140625 C212.63703737 81.0709977 215.14501328 81.22641682 219.16015625 83.5625 C225.70223232 91.22151589 225.08869404 98.90994794 224.72265625 108.5625 C225.28919922 107.56283203 225.28919922 107.56283203 225.8671875 106.54296875 C231.22501923 97.57142381 238.63649235 87.25255406 248.62109375 83.08203125 C254.45543176 81.63971349 259.72504821 81.6707107 265.22265625 84.125 C269.05895804 87.86539424 270.4839748 91.80819138 271.19140625 97.0078125 C271.28281669 107.77139185 269.17225199 117.40859925 266.45019531 127.78759766 C262.81288918 141.660625 260.04374265 154.16953169 260.72265625 168.5625 C266.00265625 168.5625 271.28265625 168.5625 276.72265625 168.5625 C277.72265625 174.5625 277.72265625 174.5625 276.71875 176.7578125 C271.45812011 183.27097332 266.21106029 187.52342983 257.72265625 188.5625 C252.06866623 188.6597962 247.07253349 187.25459092 242.72265625 183.5625 C236.34371949 175.79977273 235.0049382 167.34430243 235.72265625 157.5625 C237.03989757 145.8151024 239.90914275 134.64259098 243.29711914 123.32958984 C245.06111962 117.36110975 246.24446898 111.77247246 246.72265625 105.5625 C228.75510648 115.20362427 221.01082274 143.95090203 215.45166016 162.140625 C214.74166179 164.49936036 214.03437182 166.85888893 213.328125 169.21875 C213.10817871 169.94457275 212.88823242 170.67039551 212.66162109 171.41821289 C212.08136288 173.34645209 211.5203072 175.28044163 210.9609375 177.21484375 C209.20429757 181.96386716 207.41930812 185.67729033 202.84765625 188.0625 C199.09913384 188.66226359 197.14402795 188.15914013 193.72265625 186.5625 C191.77218683 184.94831841 190.85246932 183.82212614 189.72265625 181.5625 C188.97649426 171.66575856 190.41685488 162.74334712 192.84765625 153.1875 C193.1656395 151.88423445 193.48210239 150.5805971 193.79711914 149.27661133 C195.31424385 143.03534847 196.91120372 136.81499484 198.5234375 130.59765625 C198.79978027 129.52241699 199.07612305 128.44717773 199.36083984 127.33935547 C199.8769801 125.34447496 200.4038965 123.3523373 200.94384766 121.36376953 C202.45349813 115.58488133 202.97236872 110.53732761 202.72265625 104.5625 C190.3184242 110.39978567 184.5281744 128.64265795 180.16015625 140.75 C176.73535393 150.50245813 174.44203679 160.55285532 172.29467773 170.65112305 C170.7941779 177.391216 169.43284746 182.4139787 164.72265625 187.5625 C160.99320444 188.8056506 157.59116276 189.2122882 153.72265625 188.5625 C148.66264868 185.04249473 147.79888372 181.33499279 146.72265625 175.5625 C146.31015625 176.08199219 145.89765625 176.60148438 145.47265625 177.13671875 C140.84716461 182.7224129 136.42323787 187.73498058 129.015625 189.0390625 C123.4097114 189.33047798 119.59382091 188.63604217 115.16015625 185.14453125 C111.17896251 180.76305444 110.13678761 176.51793372 109.53515625 170.75 C109.45330078 170.05712891 109.37144531 169.36425781 109.28710938 168.65039062 C109.08841332 166.95563016 108.90406422 165.25919806 108.72265625 163.5625 C108.09359375 164.49191406 107.46453125 165.42132813 106.81640625 166.37890625 C100.09512103 176.15508098 93.61773029 185.02951667 81.72265625 188.5625 C76.71113285 189.48143718 72.07045554 188.65376194 67.6171875 186.23828125 C62.91108527 182.07556402 60.67059406 175.40631343 58.72265625 169.5625 C57.95953125 170.5525 57.19640625 171.5425 56.41015625 172.5625 C48.85535531 181.34673788 37.77866635 188.6329975 26.05859375 189.8359375 C17.83180204 190.11812297 11.45475991 188.69001056 5.1328125 183.17578125 C2.26169896 179.99050332 0.40521483 176.25210511 -1.3828125 172.39453125 C-2.35252468 170.30523155 -2.35252468 170.30523155 -4.27734375 167.5625 C-4.8084375 168.27535156 -5.33953125 168.98820313 -5.88671875 169.72265625 C-15.00668621 180.55634309 -28.05629679 188.66871751 -42.30859375 190.05859375 C-49.79571164 190.30566864 -55.88118565 189.5653473 -62.27734375 185.5625 C-63.16421875 185.02625 -64.05109375 184.49 -64.96484375 183.9375 C-70.03213688 178.733253 -73.15698907 172.45616497 -75.27734375 165.5625 C-75.83679688 166.03558594 -76.39625 166.50867188 -76.97265625 166.99609375 C-94.66464638 181.58771905 -112.77616219 191.4221385 -136.27734375 189.5625 C-143.30018189 188.06791776 -149.72235646 185.25623411 -154.27734375 179.5625 C-163.67607623 164.50712297 -163.64798979 149.40960062 -159.78222656 132.56591797 C-157.28377907 122.65186568 -153.04752349 113.55942129 -148.27734375 104.5625 C-147.78234375 103.5725 -147.78234375 103.5725 -147.27734375 102.5625 C-145.94401042 101.22916667 -144.61067708 99.89583333 -143.27734375 98.5625 C-142.16851765 97.27483098 -141.06481217 95.98274371 -139.96484375 94.6875 C-132.48451932 86.14309545 -124.25301794 80.10322367 -112.58984375 79.3125 C-106.82859801 79.44100362 -101.672044 80.50014408 -97.22265625 84.33203125 C-90.68777158 91.42278786 -89.74296932 98.06756679 -89.91015625 107.55078125 C-90.77557153 120.28343371 -97.53165901 131.63329583 -106.98828125 139.9453125 C-116.1329097 146.88703326 -125.15818519 150.07903311 -136.27734375 152.5625 C-135.16966843 160.6388302 -135.16966843 160.6388302 -131.27734375 167.5625 C-124.49890976 171.65780387 -117.53309603 171.59646798 -109.94921875 169.75390625 C-100.77198891 166.78056609 -93.0576391 162.18588178 -85.27734375 156.5625 C-83.62605469 155.62857422 -83.62605469 155.62857422 -81.94140625 154.67578125 C-78.78181168 151.96800247 -78.72711846 149.16303969 -78.39453125 145.13671875 C-78.31762728 143.19523506 -78.24194288 141.25349929 -78.20010376 139.3109436 C-78.11863284 135.79530417 -77.93052228 132.28515805 -77.75 128.7734375 C-77.69826881 127.71643394 -77.69826881 127.71643394 -77.64549255 126.63807678 C-75.63476081 88.19843855 -63.2885623 42.28604794 -39.27734375 11.5625 C-38.68308594 10.78648438 -38.08882812 10.01046875 -37.4765625 9.2109375 C-32.2503524 2.79531407 -25.61720003 -2.66740833 -17.30859375 -4.25 C-10.76817739 -4.85373074 -5.42804751 -3.79855412 0 0 Z M-18.6953125 20.12890625 C-39.82961258 40.04822387 -51.617118 98.18636905 -53.27734375 125.5625 C-52.8611719 127.76065254 -52.8611719 127.76065254 -52.27734375 129.5625 C-43.47151409 117.27397887 -35.68481219 104.98185962 -29.14550781 91.35888672 C-27.93157789 88.8470486 -26.66617869 86.36202021 -25.40234375 83.875 C-23.85077841 80.8206948 -22.51721337 77.75651194 -21.27734375 74.5625 C-21.03032715 73.93448486 -20.78331055 73.30646973 -20.52880859 72.65942383 C-9.7386141 46.60662876 -9.7386141 46.60662876 -11.27734375 19.5625 C-14.55190354 18.43979379 -15.72503543 18.20470414 -18.6953125 20.12890625 Z M54.22265625 19.71875 C51.57291398 21.67293492 50.34539813 23.2227017 48.72265625 26.0625 C48.26890625 26.8359375 47.81515625 27.609375 47.34765625 28.40625 C38.36146305 45.86020218 33.00312283 64.55598105 28.41015625 83.5625 C28.2453476 84.24193665 28.08053894 84.92137329 27.91073608 85.62139893 C24.66310922 99.09993718 21.57477383 112.69355182 20.72265625 126.5625 C24.58485272 123.10261566 27.06864326 119.14593451 29.72265625 114.75 C30.19614502 113.96737793 30.66963379 113.18475586 31.1574707 112.37841797 C46.29945422 86.99383844 64.06536526 55.31055571 61.72265625 24.5625 C61.07328112 21.63373416 61.07328112 21.63373416 59.72265625 19.5625 C56.76550323 18.19608634 56.76550323 18.19608634 54.22265625 19.71875 Z M-120.27734375 101.5625 C-127.93192259 111.00382403 -134.27734375 124.26485444 -134.27734375 136.5625 C-124.6860097 135.04006602 -117.56758385 131.01793487 -111.4921875 123.34375 C-108.08659636 118.35034305 -106.03966119 112.63528931 -106.27734375 106.5625 C-107.10173168 103.67157204 -108.10990551 100.72993824 -110.27734375 98.5625 C-114.58306992 98.08408598 -116.91230771 98.85405636 -120.27734375 101.5625 Z " fill="#FEB231" transform="translate(571.27734375,60.4375)"/>
<path d="M0 0 C12.91491204 7.1159466 20.09637687 21.21088987 24.5 34.7734375 C36.20895108 75.79781389 26.46321461 118.83428691 7.19897461 155.90917969 C6.68987549 156.9149707 6.18077637 157.92076172 5.65625 158.95703125 C5.19283203 159.84567871 4.72941406 160.73432617 4.25195312 161.64990234 C2.94791465 165.60340428 3.61511413 168.63090048 5.3112793 172.37573242 C5.68679932 172.98650635 6.06231934 173.59728027 6.44921875 174.2265625 C7.07497803 175.2638147 7.07497803 175.2638147 7.71337891 176.32202148 C8.15858887 177.03946533 8.60379883 177.75690918 9.0625 178.49609375 C9.98206203 180.0107526 10.90003417 181.52637784 11.81640625 183.04296875 C12.26000488 183.77451172 12.70360352 184.50605469 13.16064453 185.25976562 C14.70850815 187.87127979 16.10878247 190.54844203 17.5 193.24609375 C21.08742611 199.92297465 25.70166862 206.01206102 31.375 211.05859375 C33.375 213.30859375 33.375 213.30859375 34 216.37109375 C33.375 219.30859375 33.375 219.30859375 31.25 221.55859375 C25.8867885 224.82315727 20.65907048 226.24175459 14.375 225.30859375 C4.87627213 222.32685023 0.0332301 214.28291764 -4.6875 206.05859375 C-5.11724121 205.3200415 -5.54698242 204.58148926 -5.98974609 203.82055664 C-9.24793749 198.14621308 -12.13921647 192.36605573 -14.625 186.30859375 C-15.635625 187.13359375 -16.64625 187.95859375 -17.6875 188.80859375 C-31.88670414 199.3394622 -48.66324679 206.33923485 -66.625 204.30859375 C-79.19470511 202.38039465 -89.95386326 198.50031103 -98 188.12109375 C-103.67839044 179.62092647 -106.8081683 170.62502257 -109.046875 160.70703125 C-109.52844098 158.31407031 -109.52844098 158.31407031 -110.625 156.30859375 C-115.22148189 113.06310633 -108.23902058 64.5836371 -80.7890625 29.6015625 C-78.17657571 26.39854151 -75.42749965 23.34638572 -72.625 20.30859375 C-71.89925781 19.49003906 -71.17351562 18.67148438 -70.42578125 17.828125 C-60.25747673 6.90800498 -48.64944787 1.4707958 -34.625 -2.69140625 C-33.75101562 -3.05878906 -32.87703125 -3.42617188 -31.9765625 -3.8046875 C-22.5371898 -7.36405229 -8.89431348 -3.89126215 0 0 Z M-42.5625 26.24609375 C-69.70496036 51.41874723 -81.76837371 92.0737931 -83.77734375 128.03564453 C-84.43873844 145.99581721 -84.03488675 167.06132086 -71.625 181.30859375 C-66.34608168 185.72564785 -61.63158656 185.92853561 -54.8359375 185.6875 C-43.33784172 184.33066875 -34.76529581 176.16575793 -27.7421875 167.51953125 C-26.43747284 165.35420837 -26.43747284 165.35420837 -26.63671875 162.83984375 C-29.84248257 154.62903364 -41.21201705 147.68965217 -48.625 143.30859375 C-49.285 143.30859375 -49.945 143.30859375 -50.625 143.30859375 C-51.10809179 136.06221694 -51.10809179 136.06221694 -49.0625 132.87109375 C-45.25500308 130.4303906 -41.96271478 129.86412878 -37.48828125 130.71484375 C-30.28656902 132.82634053 -24.42578114 136.93401844 -18.75 141.74609375 C-18.04875 142.26171875 -17.3475 142.77734375 -16.625 143.30859375 C-13.45468163 142.64304226 -13.45468163 142.64304226 -12.46166992 140.00561523 C-12.09662354 138.99055908 -11.73157715 137.97550293 -11.35546875 136.9296875 C-10.94433838 135.79313721 -10.53320801 134.65658691 -10.10961914 133.4855957 C-9.68156982 132.25156006 -9.25352051 131.01752441 -8.8125 129.74609375 C-8.59189911 129.1160141 -8.37129822 128.48593445 -8.14401245 127.83676147 C2.6949953 96.78222588 13.03807187 57.86806171 -0.26953125 26.0625 C-2.90674743 20.70446713 -6.09214043 16.87260184 -11.625 14.30859375 C-23.50299438 10.79918632 -34.11649151 18.75104124 -42.5625 26.24609375 Z " fill="#FE9A3E" transform="translate(381.625,55.69140625)"/>
<path d="M0 0 C13.61484367 9.2696808 20.71856944 24.85625573 25.9375 40 C26.20433594 40.7734375 26.47117187 41.546875 26.74609375 42.34375 C30.77278633 56.78430269 27.88371544 72.02165472 21.36328125 85.17578125 C19.3077785 88.79327443 17.07590124 92.26617217 14.79296875 95.74316406 C13.98815492 96.96939099 13.18511652 98.19678489 12.38378906 99.42529297 C11.61380889 100.59974844 10.83514773 101.76858176 10.04589844 102.93017578 C4.54126873 111.2313935 3.4621924 118.01625976 3.625 127.875 C3.6362793 129.0192041 3.64755859 130.1634082 3.65917969 131.34228516 C3.89737455 146.59302452 5.17756397 161.72607304 6.9609375 176.8671875 C10.3175162 205.3779965 10.3175162 205.3779965 10.375 216.625 C10.3848291 217.45161133 10.3946582 218.27822266 10.40478516 219.12988281 C10.28860895 227.22180838 8.38185973 235.81991598 2.9375 242 C-0.69800647 244.33122167 -4.74512286 246.43433209 -9.0625 247 C-15.64964202 244.63145699 -20.74589645 240.44826817 -23.9921875 234.21484375 C-27.07016333 226.60784633 -26.79316887 218.08922109 -27.0625 210 C-26.4025 210 -25.7425 210 -25.0625 210 C-25.248125 209.38125 -25.43375 208.7625 -25.625 208.125 C-26.0625 206 -26.0625 206 -25.0625 204 C-24.71821292 201.3361279 -24.42183807 198.68394911 -24.16015625 196.01171875 C-24.07807419 195.20582306 -23.99599213 194.39992737 -23.91142273 193.5696106 C-23.64500332 190.94265069 -23.3845137 188.31515055 -23.125 185.6875 C-22.94510238 183.88044098 -22.76508919 182.07339347 -22.58496094 180.26635742 C-22.3184382 177.59063448 -22.05240303 174.91486976 -21.78829956 172.23890686 C-21.34201283 167.73075831 -20.87428016 163.22707649 -20.35546875 158.7265625 C-19.24828341 148.9275511 -18.81266178 139.17409894 -18.6875 129.3125 C-18.66139648 128.14114502 -18.63529297 126.96979004 -18.60839844 125.76293945 C-18.58492736 114.09026838 -22.38695192 106.37310713 -29 97 C-40.92429578 79.59556406 -43.97014683 65.45213538 -41.66796875 44.390625 C-39.01518777 31.99957062 -31.73481377 19.90770396 -24.0625 10 C-23.63324219 9.41863281 -23.20398438 8.83726563 -22.76171875 8.23828125 C-16.49098387 0.12922018 -10.04962948 -3.28151167 0 0 Z " fill="#FE993D" transform="translate(128.0625,80)"/>
<path d="M0 0 C2.49747685 1.88998248 3.73725598 3.17614163 4.69140625 6.16796875 C5.09038239 9.82945865 4.42951916 13.01243089 3.625 16.5625 C3.36904053 17.74114624 3.36904053 17.74114624 3.10791016 18.94360352 C1.77325197 24.93306091 0.29186837 30.88497759 -1.203125 36.8359375 C-1.40011993 37.62026657 -1.59711487 38.40459564 -1.80007935 39.21269226 C-2.79864132 43.17965167 -3.80573266 47.14419841 -4.82568359 51.10571289 C-8.93260145 66.71793242 -8.93260145 66.71793242 -10.125 82.75 C-10.10695313 83.75546875 -10.08890625 84.7609375 -10.0703125 85.796875 C-10.04710937 86.52390625 -10.02390625 87.2509375 -10 88 C-4.97794256 87.30002297 -3.09035831 84.03606896 -0.15234375 80.1953125 C2.22263492 76.66948209 4.26026548 73.09708133 6.1875 69.3125 C6.4959082 68.71493896 6.80431641 68.11737793 7.12207031 67.50170898 C13.61919201 54.1784756 16.7516232 39.51708856 20.05224609 25.16040039 C23.97689386 8.18534623 23.97689386 8.18534623 29 2 C32.99241652 -0.4313357 35.72949355 -1.23527897 40.375 -0.375 C43 1 43 1 45 4 C45.23046875 6.05078125 45.23046875 6.05078125 45.1875 8.3125 C45.18105469 9.05113281 45.17460938 9.78976563 45.16796875 10.55078125 C44.97184944 13.41047451 44.50854491 16.18062702 44 19 C44.56847656 18.27554688 45.13695312 17.55109375 45.72265625 16.8046875 C58.44899458 0.87020712 58.44899458 0.87020712 66.3671875 -0.37109375 C70.7346323 -0.4867426 73.98636013 -0.56264275 77.5 2.25 C81.26696833 6.39366516 81.26696833 6.39366516 82 9 C81.625 11.75 81.625 11.75 81 14 C80 11 80 11 80 9 C79.34 9 78.68 9 78 9 C76.95107762 7.36368108 75.95093297 5.69514137 75 4 C73.97791088 2.75698015 73.97791088 2.75698015 71.8203125 2.8671875 C70.93085937 2.86976563 70.04140625 2.87234375 69.125 2.875 C68.24070312 2.87242187 67.35640625 2.86984375 66.4453125 2.8671875 C63.01349607 3.05358009 61.38384204 3.61615796 58.9375 6.0625 C57.9784375 7.0215625 57.9784375 7.0215625 57 8 C56.34 8 55.68 8 55 8 C55 8.99 55 9.98 55 11 C53.625 12.6875 53.625 12.6875 52 14 C51.34 14 50.68 14 50 14 C48.88958318 16.14151815 47.91053789 18.23856563 47.0625 20.5 C45.97367339 23.06194497 44.89128209 24.95741534 43 27 C42.01 27 41.02 27 40 27 C40.06582275 26.45061768 40.13164551 25.90123535 40.19946289 25.33520508 C40.49519198 22.82851121 40.77894397 20.32059883 41.0625 17.8125 C41.16626953 16.94818359 41.27003906 16.08386719 41.37695312 15.19335938 C41.47041016 14.35224609 41.56386719 13.51113281 41.66015625 12.64453125 C41.74918213 11.87471924 41.83820801 11.10490723 41.92993164 10.31176758 C42.10134343 7.52853944 42.10134343 7.52853944 41 3 C37.37 3 33.74 3 30 3 C29.67 4.32 29.34 5.64 29 7 C28.29810547 8.31871094 28.29810547 8.31871094 27.58203125 9.6640625 C25.612602 13.81688369 24.67913806 17.90465197 23.6875 22.375 C23.25196885 24.24755104 22.81574264 26.11994052 22.37890625 27.9921875 C21.67847015 31.03124906 20.98396299 34.07137758 20.30029297 37.11425781 C15.35246023 59.00714246 15.35246023 59.00714246 9.515625 68.51171875 C8.02685566 70.95590965 7.05725172 73.3484798 6 76 C5.04542117 77.63160349 4.04494699 79.23724241 3 80.8125 C2.484375 81.60269531 1.96875 82.39289063 1.4375 83.20703125 C0.963125 83.79871094 0.48875 84.39039063 0 85 C-0.66 85 -1.32 85 -2 85 C-2 85.99 -2 86.98 -2 88 C-4.77627845 90.67345333 -7.2241456 91.47557578 -11 92 C-11 91.01 -11 90.02 -11 89 C-11.66 89 -12.32 89 -13 89 C-14.02235462 69.34807233 -8.17482742 48.92282028 -2.3125 30.3125 C0.39316975 21.67696453 1.29526228 12.99329482 2 4 C1.01 3.67 0.02 3.34 -1 3 C-1 2.34 -1 1.68 -1 1 C-7.00694675 2.89693055 -12.04706135 4.91902764 -16 10 C-19.12735652 16.27953333 -20.98557324 22.72869443 -22.44848633 29.55297852 C-23.45427301 34.01557256 -24.69717068 38.41042439 -25.9375 42.8125 C-26.18951172 43.73998047 -26.44152344 44.66746094 -26.70117188 45.62304688 C-26.95318359 46.51701172 -27.20519531 47.41097656 -27.46484375 48.33203125 C-27.687771 49.13358643 -27.91069824 49.9351416 -28.14038086 50.76098633 C-29.08600817 53.22402186 -30.38377231 54.92987607 -32 57 C-32.68124706 58.99508067 -33.34427209 60.99638693 -34 63 C-36.9336009 70.57170508 -40.40912744 76.15148354 -46 82 C-46.88459883 83.05452177 -47.76052413 84.11641983 -48.625 85.1875 C-50.96367093 87.95697873 -53.33050586 90.54695133 -56 93 C-56.66 93 -57.32 93 -58 93 C-58 92.34 -58 91.68 -58 91 C-59.32 90.34 -60.64 89.68 -62 89 C-63.00579915 75.25407833 -60.051015 62.3394689 -57 49 C-56.75846191 47.89962402 -56.51692383 46.79924805 -56.26806641 45.66552734 C-56.0210498 44.59383301 -55.7740332 43.52213867 -55.51953125 42.41796875 C-55.30014893 41.45012451 -55.0807666 40.48228027 -54.85473633 39.48510742 C-53.96395946 36.89521375 -53.08703243 35.72511091 -51 34 C-51.82275884 43.02749282 -54.26921932 51.72659174 -56.47265625 60.49609375 C-58.50356611 68.88315663 -60.30717082 77.31941281 -60 86 C-59.34 86.99 -58.68 87.98 -58 89 C-39.3673038 78.55926506 -32.36819923 53.47617553 -26.93188477 34.33496094 C-26.24155743 31.8708958 -25.56063021 29.40417244 -24.89038086 26.93457031 C-19.59105991 7.66578147 -19.59105991 7.66578147 -12 1 C-7.71262958 -1.14368521 -4.59073952 -1.39718159 0 0 Z " fill="#FDBB22" transform="translate(713,142)"/>
<path d="M0 0 C1.32 0 2.64 0 4 0 C4.0543251 3.02107902 4.09382927 6.04116528 4.125 9.0625 C4.14175781 9.91005859 4.15851562 10.75761719 4.17578125 11.63085938 C4.21574798 16.80655154 3.68591027 21.04800573 2 26 C1.65839844 27.10601562 1.31679688 28.21203125 0.96484375 29.3515625 C0.27822633 31.53933969 -0.4092782 33.72683865 -1.09765625 35.9140625 C-1.88618078 38.61074811 -2.49522265 41.23935929 -3 44 C-3.80169984 48.04858419 -4.64284045 52.08777852 -5.5 56.125 C-5.7578125 57.34445313 -6.015625 58.56390625 -6.28125 59.8203125 C-7 63 -7 63 -8 66 C-8.22560676 68.39254576 -8.40848595 70.78928123 -8.5625 73.1875 C-8.68818359 75.09595703 -8.68818359 75.09595703 -8.81640625 77.04296875 C-8.87699219 78.01878906 -8.93757812 78.99460937 -9 80 C-7.68 80.33 -6.36 80.66 -5 81 C-5 81.66 -5 82.32 -5 83 C-3.1128125 82.7834375 -3.1128125 82.7834375 -1.1875 82.5625 C-0.47980469 82.48128906 0.22789062 82.40007812 0.95703125 82.31640625 C3.19396393 82.02829265 3.19396393 82.02829265 6 81 C7.00111137 78.67986944 7.00111137 78.67986944 7.625 75.875 C7.87507812 74.8746875 8.12515625 73.874375 8.3828125 72.84375 C9.06308598 69.88443253 9.06308598 69.88443253 9.5 66.375 C10.54307888 59.33421759 13.41526497 52.80279245 16.1328125 46.26171875 C16.92879912 44.18569959 17.51406463 42.16687508 18 40 C18.66 40 19.32 40 20 40 C20.103125 39.175 20.20625 38.35 20.3125 37.5 C21.11646056 33.40710988 22.46352158 29.87459775 24 26 C24.66 26 25.32 26 26 26 C26 24.68 26 23.36 26 22 C26.66 22 27.32 22 28 22 C28.0825 21.278125 28.165 20.55625 28.25 19.8125 C29.1507657 16.43462862 30.7673956 14.65121773 33 12 C33.33 11.01 33.66 10.02 34 9 C34.66 9 35.32 9 36 9 C36.2475 8.236875 36.495 7.47375 36.75 6.6875 C38.14961168 3.67833489 39.10209155 2.5731503 42 1 C44.75 0.8125 44.75 0.8125 47 1 C49.8330774 7.70992017 48.17003665 12.25903508 46 19 C44.94229524 22.65174045 43.9677292 26.32347421 43 30 C42.79552246 30.75635742 42.59104492 31.51271484 42.38037109 32.29199219 C36.40855265 54.22548936 36.40855265 54.22548936 41 76 C43.66069362 79.20647693 46.60123678 81.60827774 50 84 C45.54397988 83.49074056 43.13473193 82.21510967 40 79 C30.42193598 61.57368955 36.43397381 41.89800142 41.625 23.9375 C41.93832275 22.89126465 42.25164551 21.8450293 42.57446289 20.76708984 C44.33846337 14.79860975 45.52181273 9.20997246 46 3 C28.03245023 12.64112427 20.28816649 41.38840203 14.72900391 59.578125 C14.01900554 61.93686036 13.31171557 64.29638893 12.60546875 66.65625 C12.38552246 67.38207275 12.16557617 68.10789551 11.93896484 68.85571289 C11.35870663 70.78395209 10.79765095 72.71794163 10.23828125 74.65234375 C8.48164132 79.40136716 6.69665187 83.11479033 2.125 85.5 C-1.62352241 86.09976359 -3.5786283 85.59664013 -7 84 C-8.95046942 82.38581841 -9.87018693 81.25962614 -11 79 C-11.74616199 69.10325856 -10.30580137 60.18084712 -7.875 50.625 C-7.55701675 49.32173445 -7.24055386 48.0180971 -6.92553711 46.71411133 C-5.4084124 40.47284847 -3.81145253 34.25249484 -2.19921875 28.03515625 C-1.92287598 26.95991699 -1.6465332 25.88467773 -1.36181641 24.77685547 C-0.84567615 22.78197496 -0.31875975 20.7898373 0.22119141 18.80126953 C1.73084188 13.02238133 2.24971247 7.97482761 2 2 C1.34 2 0.68 2 0 2 C0 1.34 0 0.68 0 0 Z " fill="#FEBD23" transform="translate(772,163)"/>
<path d="M0 0 C2.9078066 4.76880282 2.27316131 9.45497811 1.05419922 14.78515625 C-0.29807755 20.08786861 -1.84115463 25.32876766 -3.4375 30.5625 C-4.0975 30.2325 -4.7575 29.9025 -5.4375 29.5625 C-3.61595688 20.10597826 -3.61595688 20.10597826 -2.3125 15.5625 C-1.08762054 10.89264708 -1.30406634 6.36611187 -1.4375 1.5625 C-5.7275 1.5625 -10.0175 1.5625 -14.4375 1.5625 C-14.4375 2.2225 -14.4375 2.8825 -14.4375 3.5625 C-15.18 4.2225 -15.9225 4.8825 -16.6875 5.5625 C-20.43914958 9.13347524 -21.72952251 13.78911312 -23.4375 18.5625 C-23.77394531 19.33980469 -24.11039063 20.11710937 -24.45703125 20.91796875 C-25.67233688 24.19590465 -26.291914 27.44006145 -26.9375 30.875 C-27.67218534 34.760048 -28.42782375 38.61588882 -29.41015625 42.4453125 C-30.1586198 45.36844295 -30.81004077 48.29510833 -31.40234375 51.25390625 C-31.56283203 52.05376953 -31.72332031 52.85363281 -31.88867188 53.67773438 C-32.21349023 55.31226208 -32.53378851 56.94769438 -32.84960938 58.58398438 C-33.86071195 63.57504451 -35.06420949 68.03599854 -37.4375 72.5625 C-38.4275 72.8925 -39.4175 73.2225 -40.4375 73.5625 C-40.4375 74.2225 -40.4375 74.8825 -40.4375 75.5625 C-41.0975 75.5625 -41.7575 75.5625 -42.4375 75.5625 C-42.77007813 76.67044922 -42.77007813 76.67044922 -43.109375 77.80078125 C-44.7580722 81.22910161 -46.59433055 82.56534343 -49.6875 84.75 C-50.62078125 85.42417969 -51.5540625 86.09835938 -52.515625 86.79296875 C-58.15469288 90.20807269 -63.90681706 91.69573121 -70.4375 90.5625 C-74.10882441 88.74632466 -76.10125123 86.29613368 -77.8125 82.5625 C-78.39155259 79.78304759 -78.60378305 77.38931192 -78.4375 74.5625 C-76.64681427 77.2485286 -75.77694209 79.2251589 -74.8125 82.25 C-74.55210937 83.05824219 -74.29171875 83.86648437 -74.0234375 84.69921875 C-73.83007812 85.31410156 -73.63671875 85.92898437 -73.4375 86.5625 C-67.8076253 88.16609136 -62.99212108 89.36900758 -57.5078125 86.87109375 C-50.25146834 82.28453659 -39.44988306 73.36527169 -36.88896179 64.70819092 C-36.74860001 64.01397034 -36.60823822 63.31974976 -36.46362305 62.60449219 C-36.21777718 61.41614777 -36.21777718 61.41614777 -35.96696472 60.20379639 C-35.79610855 59.34763733 -35.62525238 58.49147827 -35.44921875 57.609375 C-35.0684625 55.77341611 -34.68759947 53.93747936 -34.30664062 52.1015625 C-33.71818267 49.22617057 -33.13263923 46.35021929 -32.55004883 43.47363281 C-25.14727891 7.08274164 -25.14727891 7.08274164 -16.4375 0.1875 C-10.79875644 -2.86681943 -5.81404291 -3.42879454 0 0 Z " fill="#FEB922" transform="translate(667.4375,143.4375)"/>
<path d="M0 0 C0.99 0.495 0.99 0.495 2 1 C1.5875 1.391875 1.175 1.78375 0.75 2.1875 C-5.6579793 8.8243357 -9.23370485 16.69635715 -13 25 C-13.80630859 26.7634375 -13.80630859 26.7634375 -14.62890625 28.5625 C-19.69792026 40.42108107 -22.55316493 52.91496145 -25.5859375 65.41503906 C-26.08967007 67.48746055 -26.60674165 69.55617581 -27.125 71.625 C-27.39570312 72.75164062 -27.66640625 73.87828125 -27.9453125 75.0390625 C-29.13198623 78.37053911 -30.56183436 80.45142686 -33 83 C-36.72945181 84.2431506 -40.13149349 84.6497882 -44 84 C-49.06000757 80.47999473 -49.92377253 76.77249279 -51 71 C-51.4125 71.51949219 -51.825 72.03898437 -52.25 72.57421875 C-56.87549164 78.1599129 -61.29941838 83.17248058 -68.70703125 84.4765625 C-74.33854346 84.76930869 -78.28838443 84.12745238 -82.62890625 80.421875 C-85.68416115 77.25346251 -86.93667713 75.11870402 -87.1875 70.6875 C-87.125625 69.800625 -87.06375 68.91375 -87 68 C-83.10883256 70.59411163 -83.08961414 72.56371387 -82 77 C-81.67 77.99 -81.34 78.98 -81 80 C-76.05 80.66 -71.1 81.32 -66 82 C-66 81.34 -66 80.68 -66 80 C-64.906875 79.5875 -63.81375 79.175 -62.6875 78.75 C-59.44280475 77.38277962 -57.94975511 75.97594201 -56 73 C-55.34 73 -54.68 73 -54 73 C-53.71125 72.401875 -53.4225 71.80375 -53.125 71.1875 C-52 69 -52 69 -50 66 C-49.01 66.33 -48.02 66.66 -47 67 C-47.01160156 67.60328125 -47.02320313 68.2065625 -47.03515625 68.828125 C-47.04417969 69.62734375 -47.05320312 70.4265625 -47.0625 71.25 C-47.07410156 72.03890625 -47.08570313 72.8278125 -47.09765625 73.640625 C-47.00251462 75.93924671 -46.76316406 77.83050218 -46 80 C-42.83062455 81.58468772 -39.45270036 81.42538403 -36 81 C-34.12109566 79.62493901 -34.12109566 79.62493901 -33 78 C-32.34 78 -31.68 78 -31 78 C-30.814375 76.14375 -30.814375 76.14375 -30.625 74.25 C-30.39281449 71.92814492 -30.14108723 70.2660502 -29.04296875 68.1953125 C-27.58612433 65.12884597 -27.21371989 61.94780477 -26.6875 58.625 C-25.50969969 51.72860667 -23.61992987 45.52291007 -21.0859375 38.98828125 C-20.11389246 36.31340912 -19.46768455 33.80091079 -19 31 C-18.34 31 -17.68 31 -17 31 C-16.814375 29.948125 -16.814375 29.948125 -16.625 28.875 C-15.41076381 23.28951354 -13.35708542 18.51081168 -10.625 13.5 C-10.03976562 12.4171875 -9.45453125 11.334375 -8.8515625 10.21875 C-3.67867868 1.22622623 -3.67867868 1.22622623 0 0 Z " fill="#FDBB23" transform="translate(769,165)"/>
<path d="M0 0 C5.67499199 4.88739805 8.54570586 9.86831436 9.37109375 17.375 C9.64248263 32.18963997 5.24406866 44.05819292 -5 55 C-11.63387141 60.83092444 -19.51955141 66.61540712 -28.5625 67.25 C-29.366875 67.1675 -30.17125 67.085 -31 67 C-28.12629911 65.0841994 -25.65504143 64.07476121 -22.4375 62.875 C-11.02199036 58.15989819 -2.37417311 49.89424013 3.3125 38.9375 C6.88165157 30.09221133 8.4669924 19.0000648 4.97265625 9.984375 C2.80264379 5.55720098 0.78144295 3.12067919 -3.75 1.1875 C-10.83533303 -1.11752516 -18.01156002 -0.29471163 -25 2 C-28.18579367 3.67939769 -28.18579367 3.67939769 -31 6 C-31.79470703 6.58007812 -31.79470703 6.58007812 -32.60546875 7.171875 C-45.9586721 17.561095 -53.34064228 34.1986999 -58 50 C-58.33 50 -58.66 50 -59 50 C-58.56252599 43.19559654 -57.13477534 38.23961054 -54.0625 32.1875 C-53.70220703 31.45080078 -53.34191406 30.71410156 -52.97070312 29.95507812 C-51.99360558 27.96309473 -51.00038455 25.98036362 -50 24 C-49.66540771 23.29786377 -49.33081543 22.59572754 -48.98608398 21.87231445 C-47.69749967 19.42563133 -45.98853584 17.93479162 -44 16 C-42.89002928 14.71331752 -41.78646817 13.4210925 -40.6875 12.125 C-30.46380722 0.44698149 -15.28339687 -8.24426964 0 0 Z " fill="#FD951F" transform="translate(472,143)"/>
<path d="M0 0 C2.23147244 2.5661933 3.52886437 5.14027185 4.8125 8.25 C7.92249903 15.47091728 12.15776056 21.4369674 19.19921875 25.1640625 C23.09734928 26.32752126 26.76458369 26.36831475 30.8125 26.375 C31.58142578 26.39949219 32.35035156 26.42398438 33.14257812 26.44921875 C39.04905181 26.47912495 42.92728488 24.89393025 48 22 C49.2375 21.5359375 49.2375 21.5359375 50.5 21.0625 C55.47514765 18.94806225 59.97713036 16.53430446 63 12 C63.99 12.33 64.98 12.66 66 13 C61.33444335 17.31412511 56.7943906 21.28218077 51 24 C49.61361328 24.66902344 49.61361328 24.66902344 48.19921875 25.3515625 C39.14412908 29.30970915 29.9270622 30.92201585 20.2265625 28.23046875 C18.00750772 27.30524824 16.03559451 26.27391691 14 25 C13.113125 24.46375 12.22625 23.9275 11.3125 23.375 C6.24520687 18.170753 3.12035468 11.89366497 1 5 C0.44054687 5.47308594 -0.11890625 5.94617188 -0.6953125 6.43359375 C-19.03803018 21.56191235 -36.09168934 29.52803631 -60 29 C-60.33 28.34 -60.66 27.68 -61 27 C-59.88882812 26.96261719 -58.77765625 26.92523438 -57.6328125 26.88671875 C-49.29415754 26.54416286 -41.89103949 25.88351198 -34 23 C-33.01386719 22.71125 -32.02773438 22.4225 -31.01171875 22.125 C-24.2101147 20.092142 -19.42847316 17.50136313 -14 13 C-12.948125 12.319375 -11.89625 11.63875 -10.8125 10.9375 C-6.43839756 7.92422943 -3.04904584 4.33285461 0 0 Z " fill="#FC9D20" transform="translate(495,221)"/>
<path d="M0 0 C3.83630179 3.74039424 5.26131855 7.68319138 5.96875 12.8828125 C6.06016095 23.64645137 3.94774443 33.27587983 1.22314453 43.65380859 C-2.11235368 56.49356233 -5.24991912 69.11500922 -5.5 82.4375 C-6.16 82.4375 -6.82 82.4375 -7.5 82.4375 C-9.36327357 72.0963317 -7.47546617 62.04487658 -3.5 52.4375 C-2.7068814 49.46193779 -2.09890892 46.45742209 -1.5 43.4375 C-1.34789062 42.70144531 -1.19578125 41.96539062 -1.0390625 41.20703125 C-0.70954563 39.59455935 -0.3912504 37.97976834 -0.08203125 36.36328125 C0.36343688 34.12398173 0.85359316 31.89352986 1.36328125 29.66796875 C3.18066854 21.45515609 4.6011034 13.58600602 1.5 5.4375 C-0.60572076 2.65813703 -1.69278869 1.5775749 -5.15625 0.9765625 C-6.56390625 1.01910156 -6.56390625 1.01910156 -8 1.0625 C-8.9384375 1.07539063 -9.876875 1.08828125 -10.84375 1.1015625 C-13.52738781 1.44096375 -15.13934876 2.18715506 -17.5 3.4375 C-18.49 3.4375 -19.48 3.4375 -20.5 3.4375 C-20.7475 4.076875 -20.995 4.71625 -21.25 5.375 C-22.5 7.4375 -22.5 7.4375 -24.5625 8 C-25.5215625 8.2165625 -25.5215625 8.2165625 -26.5 8.4375 C-26.83 9.4275 -27.16 10.4175 -27.5 11.4375 C-28.16 11.4375 -28.82 11.4375 -29.5 11.4375 C-29.70625 12.0975 -29.9125 12.7575 -30.125 13.4375 C-31.69735434 16.86809129 -33.73355917 19.52874509 -36.03515625 22.5 C-37.70955544 24.71467199 -39.1394054 27.01866515 -40.5 29.4375 C-40.83 28.7775 -41.16 28.1175 -41.5 27.4375 C-36.90078984 16.51437587 -27.83965823 3.98105709 -16.70703125 -0.9375 C-10.90006573 -2.58195041 -5.4987641 -2.4548054 0 0 Z " fill="#FDBC22" transform="translate(836.5,144.5625)"/>
<path d="M0 0 C3.15633014 2.91512587 5.25852968 5.83135162 7.375 9.5625 C7.98214844 10.62339844 8.58929688 11.68429688 9.21484375 12.77734375 C10.83632056 15.70451742 12.38903672 18.65887006 13.9375 21.625 C17.60426463 28.40949499 22.22385148 34.61200953 28 39.75 C30 42 30 42 30.625 45.0625 C30 48 30 48 27.875 50.25 C22.5117885 53.51456352 17.28407048 54.93316084 11 54 C1.50127213 51.01825648 -3.3417699 42.97432389 -8.0625 34.75 C-8.49224121 34.01144775 -8.92198242 33.27289551 -9.36474609 32.51196289 C-12.62293749 26.83761933 -15.51421647 21.05746198 -18 15 C-18.42667969 15.35191406 -18.85335938 15.70382813 -19.29296875 16.06640625 C-25.334164 20.83708209 -31.91318798 24.96556476 -39 28 C-39.99 27.67 -40.98 27.34 -42 27 C-40.66195313 26.29423828 -40.66195313 26.29423828 -39.296875 25.57421875 C-38.11448908 24.94548973 -36.93220265 24.31657357 -35.75 23.6875 C-34.58984375 23.07261719 -33.4296875 22.45773438 -32.234375 21.82421875 C-29.07683007 20.13695015 -29.07683007 20.13695015 -26.703125 18.26953125 C-25 17 -25 17 -23 17 C-22.67 16.01 -22.34 15.02 -22 14 C-19.9375 12.8125 -19.9375 12.8125 -18 12 C-14.8362185 16.84902023 -12.04217015 21.77211073 -9.46142578 26.95336914 C-2.47230634 41.52123258 -2.47230634 41.52123258 10 51 C16.37690866 51.82248236 21.34106564 50.95248749 27 48 C27.50265692 45.21160696 27.50265692 45.21160696 27 42 C25.55239565 40.78227273 24.0998085 39.5695534 22.61328125 38.3996582 C19.99348588 36.1267637 18.17459967 33.32848997 16.3125 30.4375 C15.89822754 29.80561768 15.48395508 29.17373535 15.05712891 28.52270508 C0 5.11265494 0 5.11265494 0 0 Z " fill="#FD8F20" transform="translate(385,227)"/>
<path d="M0 0 C2.34361971 2.16598594 3.0239798 4.39305158 3.59765625 7.4765625 C-2.27734375 2.7265625 -2.27734375 2.7265625 -3.40234375 0.4765625 C-8.8170365 -1.90061968 -14.15118497 -2.61072783 -19.7734375 -0.73046875 C-23.69085314 0.94842367 -27.06453154 2.80631273 -30.40234375 5.4765625 C-31.06234375 5.4765625 -31.72234375 5.4765625 -32.40234375 5.4765625 C-32.73234375 6.4665625 -33.06234375 7.4565625 -33.40234375 8.4765625 C-34.06234375 8.4765625 -34.72234375 8.4765625 -35.40234375 8.4765625 C-35.71171875 9.2603125 -36.02109375 10.0440625 -36.33984375 10.8515625 C-37.40234375 13.4765625 -37.40234375 13.4765625 -38.40234375 15.4765625 C-39.06234375 15.4765625 -39.72234375 15.4765625 -40.40234375 15.4765625 C-40.78519531 16.54003906 -40.78519531 16.54003906 -41.17578125 17.625 C-42.50741282 20.72083136 -44.16692118 23.29239854 -46.02734375 26.1015625 C-59.77277712 47.75614983 -65.50424563 73.85818505 -71.40234375 98.4765625 C-71.73234375 98.4765625 -72.06234375 98.4765625 -72.40234375 98.4765625 C-72.87489962 91.71612038 -71.14274187 85.76975035 -69.33984375 79.2890625 C-69.02184814 78.13575439 -68.70385254 76.98244629 -68.3762207 75.79418945 C-61.996819 53.04523984 -54.10603855 30.29067105 -39.40234375 11.4765625 C-38.80808594 10.70054688 -38.21382812 9.92453125 -37.6015625 9.125 C-32.3753524 2.70937657 -25.74220003 -2.75334583 -17.43359375 -4.3359375 C-10.77187631 -4.95086526 -5.55934006 -3.77990914 0 0 Z " fill="#FD9F1C" transform="translate(571.40234375,60.5234375)"/>
<path d="M0 0 C1.15822266 0.02707031 1.15822266 0.02707031 2.33984375 0.0546875 C2.90832031 0.07789062 3.47679687 0.10109375 4.0625 0.125 C1.32287885 1.62380619 -0.98779503 2.39847746 -4.0625 2.875 C-19.70409399 6.24867713 -31.18902611 20.36689667 -39.63964844 33.09228516 C-52.47838059 53.2005026 -60.73428449 77.06429477 -63.48046875 100.75390625 C-63.9375 103.125 -63.9375 103.125 -65.9375 105.125 C-65.82082885 103.16615282 -65.69363172 101.20793231 -65.5625 99.25 C-65.49289062 98.15945312 -65.42328125 97.06890625 -65.3515625 95.9453125 C-63.2286795 76.35871276 -55.83095043 56.11924095 -45.9375 39.125 C-45.59783203 38.52977539 -45.25816406 37.93455078 -44.90820312 37.32128906 C-36.86168773 23.40845937 -24.02663438 6.38787162 -8.359375 0.86328125 C-5.42601413 0.2303986 -2.98054629 -0.09170912 0 0 Z " fill="#FD9022" transform="translate(363.9375,67.875)"/>
<path d="M0 0 C0.33 0 0.66 0 1 0 C1.3723182 4.20526914 1.66217847 8.41235668 1.9375 12.625 C2.04384766 13.81480469 2.15019531 15.00460938 2.25976562 16.23046875 C2.77039193 24.93543148 2.77039193 24.93543148 0.47705078 28.10449219 C-1.27916161 29.58109295 -3.0685262 30.7713271 -5 32 C-5.495 32.99 -5.495 32.99 -6 34 C-7.34476638 34.82244296 -8.72664965 35.5848838 -10.125 36.3125 C-13.09545195 37.89332137 -15.71068053 39.49857471 -18.3125 41.625 C-22.26094632 44.58633474 -26.66885521 45.39528619 -31.42578125 46.421875 C-33.97032046 46.88501278 -33.97032046 46.88501278 -36 48 C-42.7395233 48.65140374 -47.85524905 47.75454353 -54 45 C-54.69867188 44.731875 -55.39734375 44.46375 -56.1171875 44.1875 C-59.30846415 42.1747446 -59.53794129 39.17022016 -60.46875 35.6796875 C-61.30603786 31.45630902 -61.98354526 26.96709053 -60 23 C-58.35 23 -56.7 23 -55 23 C-54.67 23.66 -54.34 24.32 -54 25 C-55.65 25.66 -57.3 26.32 -59 27 C-57.89232468 35.0763302 -57.89232468 35.0763302 -54 42 C-47.22156601 46.09530387 -40.25575228 46.03396798 -32.671875 44.19140625 C-23.49464516 41.21806609 -15.78029535 36.62338178 -8 31 C-6.90429688 30.35675781 -5.80859375 29.71351563 -4.6796875 29.05078125 C-1.59302022 26.42640285 -1.40678476 23.75186118 -0.9765625 19.82421875 C-0.83087647 17.44688759 -0.714622 15.06760415 -0.625 12.6875 C-0.55667969 11.46998047 -0.48835938 10.25246094 -0.41796875 8.99804688 C-0.25331883 5.99906619 -0.11495554 3.00122875 0 0 Z " fill="#FE9A22" transform="translate(494,186)"/>
<path d="M0 0 C5.37255487 3.66310559 8.8001413 10.21365227 10.1484375 16.46484375 C12.18474503 29.15716832 9.96852741 41.09807634 6.6484375 53.33984375 C6.43493652 54.13148926 6.22143555 54.92313477 6.00146484 55.73876953 C5.44994132 57.66761583 4.80684337 59.56981658 4.1484375 61.46484375 C3.1584375 61.95984375 3.1584375 61.95984375 2.1484375 62.46484375 C2.34179688 61.65144531 2.53515625 60.83804688 2.734375 60 C4.61140842 51.73919451 5.83142831 43.59528568 6.71875 35.1796875 C7.1484375 31.46484375 7.1484375 31.46484375 7.71484375 28.83203125 C8.98718738 21.8857228 7.88704536 14.22381411 4.390625 8.0859375 C1.68294033 4.55232385 -1.7193236 2.84225672 -5.8515625 1.46484375 C-12.20135271 0.97986865 -17.76663996 1.66190374 -23.8515625 3.46484375 C-23.8515625 4.12484375 -23.8515625 4.78484375 -23.8515625 5.46484375 C-27.31310096 8.46484375 -27.31310096 8.46484375 -29.8515625 8.46484375 C-29.8515625 7.80484375 -29.8515625 7.14484375 -29.8515625 6.46484375 C-21.31825232 -1.68265188 -11.04260806 -5.29517554 0 0 Z " fill="#FCB31F" transform="translate(638.8515625,58.53515625)"/>
<path d="M0 0 C0.66 0 1.32 0 2 0 C0.78684445 2.4263111 -0.43240718 4.84857371 -1.6640625 7.265625 C-10.35401137 24.71704496 -15.73522577 43.11525338 -20.3125 62 C-20.47758057 62.67998047 -20.64266113 63.35996094 -20.81274414 64.06054688 C-23.53130311 75.34440993 -26.26441828 86.78768733 -27.45825195 98.34375 C-28 102 -28 102 -30 104 C-30.39906921 95.24116987 -29.32627322 87.54174986 -27.1875 79.0625 C-26.92646484 77.98548828 -26.66542969 76.90847656 -26.39648438 75.79882812 C-25.87037059 73.62812162 -25.33938492 71.45858997 -24.8034668 69.2902832 C-23.7132668 64.82579661 -22.68999459 60.34676233 -21.6628418 55.86743164 C-20.91465034 52.63078019 -20.12731427 49.40795638 -19.3125 46.1875 C-19.06113281 45.19105469 -18.80976562 44.19460937 -18.55078125 43.16796875 C-18.36902344 42.45253906 -18.18726563 41.73710938 -18 41 C-17.34 41 -16.68 41 -16 41 C-15.91878906 39.9275 -15.83757813 38.855 -15.75390625 37.75 C-15.02211966 31.89570729 -12.93813899 26.5216254 -10.9375 21 C-10.56044922 19.93910156 -10.18339844 18.87820312 -9.79492188 17.78515625 C-8.87050336 15.1874232 -7.93872888 12.59258863 -7 10 C-6.34 10 -5.68 10 -5 10 C-4.690625 9.05125 -4.38125 8.1025 -4.0625 7.125 C-3 4 -3 4 -2 2 C-1.34 2 -0.68 2 0 2 C0 1.34 0 0.68 0 0 Z " fill="#FEB521" transform="translate(621,82)"/>
<path d="M0 0 C1.45334194 4.36002581 -0.40134234 7.42713765 -2.0625 11.5 C-2.41538086 12.36858643 -2.76826172 13.23717285 -3.13183594 14.13208008 C-10.98940281 32.91113976 -20.47772514 50.91751693 -33 67 C-34.09248047 68.41732422 -34.09248047 68.41732422 -35.20703125 69.86328125 C-37.10565423 72.27119955 -39.04237331 74.63990714 -41 77 C-42.6670833 79.04132649 -44.33374594 81.08299658 -46 83.125 C-47.33278126 84.75045282 -48.66590963 86.37562145 -50 88 C-51 85 -51 85 -50 82 C-48.61230202 80.88307236 -47.22341605 79.76758386 -45.828125 78.66015625 C-41.44317633 74.67809816 -36.88449002 69.65347007 -35 64 C-33.33333333 62.33333333 -31.66666667 60.66666667 -30 59 C-29.67 58.01 -29.34 57.02 -29 56 C-28.34 56 -27.68 56 -27 56 C-26.773125 55.175 -26.54625 54.35 -26.3125 53.5 C-24.72193509 49.25849357 -22.47297501 45.77206948 -20 42 C-18.50606075 39.62076341 -17.16821492 37.43332784 -16.15234375 34.81640625 C-14.71880153 31.31273188 -12.98191401 27.98695073 -11.25 24.625 C-8.08347158 18.40863143 -5.30803861 12.12485876 -2.81542969 5.60986328 C-1.08231384 1.08231384 -1.08231384 1.08231384 0 0 Z " fill="#FEB41E" transform="translate(640,122)"/>
<path d="M0 0 C0.66 0.33 1.32 0.66 2 1 C1.33302443 5.93561921 0.03347616 10.60462075 -1.3125 15.38671875 C-2.07483487 18.0946417 -2.07483487 18.0946417 -2.5 21.3125 C-3.11039167 24.59335524 -4.48502408 27.02831647 -6 30 C-6.43320486 31.34896702 -6.84834227 32.70380594 -7.25 34.0625 C-8.96003391 39.48839137 -11.76803222 44.26450364 -14.57421875 49.1796875 C-16.22558232 51.91951639 -16.22558232 51.91951639 -16 55 C-16.99 55.495 -16.99 55.495 -18 56 C-19.05352843 58.30965848 -20.05719096 60.6429774 -21 63 C-21.66 63 -22.32 63 -23 63 C-23.20625 63.78375 -23.4125 64.5675 -23.625 65.375 C-25.4731339 70.24735302 -27.9303756 74.77926645 -31 79 C-31.66 79 -32.32 79 -33 79 C-33.103125 79.5775 -33.20625 80.155 -33.3125 80.75 C-34.09792798 83.32049158 -35.30504197 84.93657284 -37 87 C-37.66 86.67 -38.32 86.34 -39 86 C-38.29617188 84.94167969 -37.59234375 83.88335937 -36.8671875 82.79296875 C-20.7298153 58.11765593 -7.91505165 32.5874758 -1.46142578 3.77734375 C-1 2 -1 2 0 0 Z " fill="#FEB720" transform="translate(632,100)"/>
<path d="M0 0 C0 3.38814541 -0.61619669 4.30216779 -2.4375 7.0625 C-4.33583247 9.96376589 -4.33583247 9.96376589 -6 13 C-6.66 13 -7.32 13 -8 13 C-8.09796875 13.6909375 -8.1959375 14.381875 -8.296875 15.09375 C-9.13908721 18.57489379 -10.57904532 21.33245113 -12.25 24.5 C-16.29848629 32.33989266 -19.89257687 40.40618424 -22 49 C-22.36910274 50.36193077 -22.74301365 51.72256529 -23.12109375 53.08203125 C-23.33443359 53.84966797 -23.54777344 54.61730469 -23.76757812 55.40820312 C-23.98865234 56.20162109 -24.20972656 56.99503906 -24.4375 57.8125 C-24.65470703 58.59431641 -24.87191406 59.37613281 -25.09570312 60.18164062 C-26.05196851 63.619027 -27.01539699 67.05385926 -27.99609375 70.484375 C-29.22734952 74.79616563 -30.42718741 79.11632145 -31.625 83.4375 C-31.96917969 84.67790039 -31.96917969 84.67790039 -32.3203125 85.94335938 C-32.88044595 87.96217367 -33.44025643 89.98107757 -34 92 C-34.33 92 -34.66 92 -35 92 C-35.14637243 87.18643809 -34.73234615 83.1062588 -33.49609375 78.45703125 C-33.17125 77.22823242 -32.84640625 75.99943359 -32.51171875 74.73339844 C-32.15465235 73.42615695 -31.79655761 72.11919597 -31.4375 70.8125 C-31.25670898 70.14593384 -31.07591797 69.47936768 -30.88964844 68.79260254 C-16.17616532 14.64529794 -16.17616532 14.64529794 0 0 Z " fill="#FEB41E" transform="translate(608,67)"/>
<path d="M0 0 C1.21929518 3.65788555 0.67519271 4.46465554 -0.7734375 7.9453125 C-1.18110352 8.93104248 -1.58876953 9.91677246 -2.00878906 10.93237305 C-2.45963867 11.98593994 -2.91048828 13.03950684 -3.375 14.125 C-3.83616211 15.21014893 -4.29732422 16.29529785 -4.77246094 17.41333008 C-13.93137991 38.66522803 -25.76411311 58.50275699 -41 76 C-42.67758767 77.92805177 -44.34426651 79.86564853 -46 81.8125 C-46.7425 82.66457031 -47.485 83.51664062 -48.25 84.39453125 C-50.21797394 87.32452816 -50.67452568 89.51640764 -51 93 C-52.125 91.375 -52.125 91.375 -53 89 C-52.01531345 83.85774804 -49.75135577 81.50126538 -46 78 C-42.46195821 74.17859102 -39.13575311 70.29627445 -36.1875 66 C-35.465625 65.01 -34.74375 64.02 -34 63 C-33.34 63 -32.68 63 -32 63 C-31.7525 62.319375 -31.505 61.63875 -31.25 60.9375 C-29.75802092 57.43134917 -27.93164489 54.28379632 -26 51 C-25.34 51 -24.68 51 -24 51 C-23.731875 49.906875 -23.46375 48.81375 -23.1875 47.6875 C-22 44 -22 44 -20.60546875 42.6171875 C-18.47196607 40.46811181 -17.43892609 38.16123328 -16.125 35.4375 C-15.34189453 33.82488281 -15.34189453 33.82488281 -14.54296875 32.1796875 C-13.77919922 30.60574219 -13.77919922 30.60574219 -13 29 C-12.14666182 27.35373696 -11.29255419 25.70787242 -10.4375 24.0625 C-7.99473225 19.20052817 -6.08430826 14.18274601 -4.2109375 9.078125 C-2.97874729 5.94597699 -1.54731603 2.98730378 0 0 Z " fill="#FDA81E" transform="translate(568,123)"/>
<path d="M0 0 C-3.25687259 1.73438275 -6.58939869 2.95102529 -10.0625 4.1875 C-19.97604671 7.98157343 -27.85281463 13.18928283 -35 21 C-35.804375 21.78375 -36.60875 22.5675 -37.4375 23.375 C-38.283125 24.24125 -39.12875 25.1075 -40 26 C-40.54914063 26.52980469 -41.09828125 27.05960938 -41.6640625 27.60546875 C-51.83326982 38.08854049 -59.65438603 52.44949016 -65 66 C-66.26698441 62.14253685 -65.45904649 60.19629545 -63.65063477 56.5690918 C-63.29155029 55.8862915 -62.93246582 55.20349121 -62.5625 54.5 C-62.19632568 53.78948486 -61.83015137 53.07896973 -61.45288086 52.34692383 C-49.95671953 30.45966998 -32.661277 8.5086111 -8.35546875 0.57421875 C-5.50758455 -0.12004158 -2.91628899 -0.31527449 0 0 Z " fill="#FD9223" transform="translate(349,54)"/>
<path d="M0 0 C1.875 1.375 1.875 1.375 2.625 4 C2.7075 4.78375 2.79 5.5675 2.875 6.375 C2.50375 5.859375 2.1325 5.34375 1.75 4.8125 C-0.10624417 3.1235377 -0.10624417 3.1235377 -2.9375 3.125 C-10.48455731 6.08463032 -13.42403392 15.84710859 -16.58642578 22.77587891 C-19.09107685 28.63490241 -21.09355413 34.63110207 -23.0625 40.6875 C-23.4911895 41.98915573 -23.92006614 43.29074984 -24.34912109 44.59228516 C-28.23002009 56.43422719 -31.76304762 68.37578146 -35.125 80.375 C-35.455 80.375 -35.785 80.375 -36.125 80.375 C-35.47403943 73.17924665 -33.67264671 66.45171849 -31.75 59.5 C-31.29367187 57.81970703 -31.29367187 57.81970703 -30.828125 56.10546875 C-29.02406593 49.49829515 -27.13125772 42.92358821 -25.125 36.375 C-24.465 36.375 -23.805 36.375 -23.125 36.375 C-22.95871094 35.11236328 -22.95871094 35.11236328 -22.7890625 33.82421875 C-20.50409792 21.95584388 -14.22515244 8.48600544 -5.125 0.375 C-2.125 -0.625 -2.125 -0.625 0 0 Z " fill="#FDA420" transform="translate(559.125,76.625)"/>
<path d="M0 0 C1.29430883 3.88292648 0.16587562 6.10522998 -1.25 9.75 C-1.51087402 10.43376709 -1.77174805 11.11753418 -2.04052734 11.82202148 C-8.39038317 27.96641456 -16.45815509 43.25337407 -25.4375 58.0625 C-25.90220703 58.83916016 -26.36691406 59.61582031 -26.84570312 60.41601562 C-29.59727322 64.94823917 -32.4926656 69.02162613 -36 73 C-36.33 72.01 -36.66 71.02 -37 70 C-36.1015625 68.44921875 -36.1015625 68.44921875 -34.625 66.6875 C-26.59981134 56.48882274 -20.47299314 45.46953306 -14.87695312 33.80517578 C-13.25879126 30.47424905 -11.5292232 27.19894302 -9.8125 23.91796875 C-8.8049659 21.88676853 -8.8049659 21.88676853 -9 19 C-8.34 19 -7.68 19 -7 19 C-6.82984375 18.38253906 -6.6596875 17.76507813 -6.484375 17.12890625 C-4.77814576 11.1661796 -2.66418883 5.59885369 0 0 Z " fill="#FEA91F" transform="translate(556,118)"/>
<path d="M0 0 C0.33 0 0.66 0 1 0 C1.27388091 6.95122671 0.63599522 13.13782929 -1.0625 19.875 C-1.28800537 20.78282227 -1.51351074 21.69064453 -1.74584961 22.62597656 C-6.48805613 41.12074213 -13.36939552 59.45976993 -23 76 C-23.99 76.495 -23.99 76.495 -25 77 C-24.38995796 72.43339955 -22.49579196 68.76972101 -20.375 64.75 C-13.6294486 51.56565192 -8.38863745 38.44129607 -5 24 C-4.58621094 22.2984375 -4.58621094 22.2984375 -4.1640625 20.5625 C-2.540534 13.7468952 -1.1764239 6.90630028 0 0 Z " fill="#FE901D" transform="translate(408,144)"/>
<path d="M0 0 C0.495 1.485 0.495 1.485 1 3 C-16.3955834 23.14051385 -16.3955834 23.14051385 -28.75 24.24609375 C-35.31939502 24.51708129 -40.75808795 24.23862136 -46 20 C-49.93179706 15.8268451 -53.29011921 11.53461413 -55 6 C-54.67 5.01 -54.34 4.02 -54 3 C-53.5875 3.88042969 -53.175 4.76085937 -52.75 5.66796875 C-48.62835607 14.37204286 -48.62835607 14.37204286 -41.36328125 20.328125 C-33.80612552 22.47660564 -25.99182807 21.9040543 -19.04296875 18.24609375 C-18.36878906 17.83488281 -17.69460938 17.42367187 -17 17 C-16.33613281 16.59910156 -15.67226563 16.19820312 -14.98828125 15.78515625 C-8.82568962 11.60815407 -4.4998106 5.85392027 0 0 Z " fill="#FE9022" transform="translate(356,219)"/>
<path d="M0 0 C2.73552036 3.02861183 4.37525771 5.79207217 5.8125 9.5625 C7.84704641 14.46502147 10.21864346 15.88516922 15 18 C15 18.66 15 19.32 15 20 C30.9165001 20.79168166 30.9165001 20.79168166 45.16796875 14.36328125 C47 13 47 13 49 13 C49.33 12.01 49.66 11.02 50 10 C52.5625 8.8125 52.5625 8.8125 55 8 C55 8.66 55 9.32 55 10 C45.18191404 18.47842189 35.17068756 23.47068437 22.17578125 23.34375 C15.91647361 22.66623577 10.3590069 19.88480249 6.125 15.1875 C0 6 0 6 0 0 Z " fill="#FDB220" transform="translate(569,227)"/>
<path d="M0 0 C0.99 0.33 1.98 0.66 3 1 C5.39490986 1.06970052 7.79167691 1.08448003 10.1875 1.0625 C11.45980469 1.05347656 12.73210938 1.04445312 14.04296875 1.03515625 C15.01878906 1.02355469 15.99460937 1.01195312 17 1 C18.29116314 6.36329305 18.29116314 6.36329305 16.99609375 9.1953125 C11.74963881 15.69092338 6.48280136 19.97331174 -2 21 C-5.5 20.625 -5.5 20.625 -8 20 C-8 19.67 -8 19.34 -8 19 C-7.35933594 18.89042969 -6.71867188 18.78085938 -6.05859375 18.66796875 C3.95341394 16.87097493 3.95341394 16.87097493 12 11 C12.66 11 13.32 11 14 11 C14.04254356 9.00045254 14.04080783 6.99958364 14 5 C12.94872823 3.71915501 12.94872823 3.71915501 10.56640625 3.9375 C8.56640512 3.97911251 6.56640512 4.02077903 4.56640625 4.0625 C2 4 2 4 0 3 C0 2.01 0 1.02 0 0 Z " fill="#FCBB26" transform="translate(831,228)"/>
<path d="M0 0 C2.29338147 2.27238942 2.95441248 3.56479118 3.29296875 6.796875 C3.25816406 7.77140625 3.22335937 8.7459375 3.1875 9.75 C3.16042969 10.73484375 3.13335937 11.7196875 3.10546875 12.734375 C3.07066406 13.48203125 3.03585937 14.2296875 3 15 C2.67 15 2.34 15 2 15 C1.87882812 14.31292969 1.75765625 13.62585938 1.6328125 12.91796875 C1.46523438 12.01691406 1.29765625 11.11585938 1.125 10.1875 C0.96257812 9.29417969 0.80015625 8.40085938 0.6328125 7.48046875 C0.08811551 4.77272154 0.08811551 4.77272154 -2 2 C-3.2375 2.061875 -4.475 2.12375 -5.75 2.1875 C-6.44609375 2.22230469 -7.1421875 2.25710937 -7.859375 2.29296875 C-12.26359558 3.74764745 -14.07707082 8.00314092 -16.0703125 11.91796875 C-16.76136222 13.33816789 -17.4461618 14.76142356 -18.125 16.1875 C-21.74615385 23.74615385 -21.74615385 23.74615385 -24 26 C-23.32584613 20.7415998 -21.75734451 15.97361654 -20 11 C-19.34 11 -18.68 11 -18 11 C-17.79375 10.113125 -17.5875 9.22625 -17.375 8.3125 C-15.59133836 4.01549696 -13.76147182 2.68676558 -10 0 C-6.20519658 -1.26493447 -3.87641726 -0.89988258 0 0 Z " fill="#FE9420" transform="translate(463,158)"/>
<path d="M0 0 C1 3 1 3 -0.4375 6.6875 C-3.72558075 12.89704623 -9.14176984 18.15626005 -15 22 C-16.794375 22.2165625 -16.794375 22.2165625 -18.625 22.4375 C-19.73875 22.623125 -20.8525 22.80875 -22 23 C-23.51294288 24.93597032 -23.51294288 24.93597032 -24 27 C-25.65 26.67 -27.3 26.34 -29 26 C-28.5547115 20.72684667 -27.91626837 15.98229776 -26 11 C-24.54393481 15.52092968 -25.72967159 18.51648796 -27 23 C-17.21106088 19.85301494 -8.84976518 16.34984798 -3.33984375 7.26171875 C-2.12556034 4.87035839 -1.01237894 2.48261769 0 0 Z " fill="#FE961E" transform="translate(464,174)"/>
<path d="M0 0 C10.04886002 -1.8616414 23.18320222 1.06832774 32 6 C35.24208262 8.43518575 38.29050954 10.97636572 41 14 C41 14.66 41 15.32 41 16 C37.6092481 14.54682061 35.58699688 12.58699688 33 10 C32.01 9.67 31.02 9.34 30 9 C30 8.34 30 7.68 30 7 C19.66956201 3.15330295 8.88069487 3.2742523 -2 3 C-1.34 2.01 -0.68 1.02 0 0 Z " fill="#FC8F24" transform="translate(352,51)"/>
<path d="M0 0 C0.66 0 1.32 0 2 0 C2.25394531 0.67546875 2.50789062 1.3509375 2.76953125 2.046875 C3.11371094 2.93890625 3.45789063 3.8309375 3.8125 4.75 C4.14894531 5.63171875 4.48539063 6.5134375 4.83203125 7.421875 C6.28083985 10.61991404 7.84957936 13.14783656 10.6875 15.25 C16.4268133 17.11139891 21.52254346 16.11629003 27 14 C28.32911682 13.65023242 29.66082739 13.30903983 31 13 C31 12.34 31 11.68 31 11 C32.485 11.495 32.485 11.495 34 12 C28.48322552 16.99136739 23.84050124 19.61496379 16.078125 19.2890625 C12.06464228 18.73079611 9.06881245 17.70889 6 15 C3.02775803 10.41515866 0 5.56225702 0 0 Z " fill="#FDB820" transform="translate(631,230)"/>
<path d="M0 0 C0.33 0 0.66 0 1 0 C0.8831456 1.50065654 0.75597952 3.0005103 0.625 4.5 C0.55539062 5.3353125 0.48578125 6.170625 0.4140625 7.03125 C-0.73004384 15.23427656 -3.57074023 22.97413642 -6.25854492 30.77392578 C-6.93986829 32.75689283 -7.60971947 34.74350943 -8.27929688 36.73046875 C-8.71545099 38.00284256 -9.15227644 39.27498649 -9.58984375 40.546875 C-9.98034912 41.68995117 -10.37085449 42.83302734 -10.77319336 44.01074219 C-11.90244299 46.76229094 -13.09125481 48.74141604 -15 51 C-14.37572962 46.58846158 -13.30236446 42.5898862 -11.85546875 38.37890625 C-11.53888054 37.44618141 -11.53888054 37.44618141 -11.21589661 36.49461365 C-10.32398253 33.86713957 -9.4216174 31.24329664 -8.51928711 28.61938477 C-5.27662839 19.16412206 -2.45540024 9.6926427 0 0 Z " fill="#FE9020" transform="translate(383,148)"/>
<path d="M0 0 C0.33 0 0.66 0 1 0 C1.28866849 6.53694454 0.17165148 12.69661473 -0.9375 19.125 C-2.37886221 27.75249282 -3.65205737 36.2492429 -4 45 C-4.33 45 -4.66 45 -5 45 C-5.58883983 31.1295506 -6.34043426 12.68086853 0 0 Z " fill="#FEB41F" transform="translate(572,160)"/>
<path d="M0 0 C0.46148437 0.43441406 0.92296875 0.86882812 1.3984375 1.31640625 C1.3984375 2.30640625 1.3984375 3.29640625 1.3984375 4.31640625 C0.7178125 3.71828125 0.0371875 3.12015625 -0.6640625 2.50390625 C-6.51562852 -1.85364292 -11.45018311 -3.38700812 -18.6015625 -2.68359375 C-21.12196677 -1.73185437 -21.12196677 -1.73185437 -22.6015625 0.31640625 C-23.41102672 3.41838022 -23.41102672 3.41838022 -23.6015625 6.31640625 C-24.2615625 5.98640625 -24.9215625 5.65640625 -25.6015625 5.31640625 C-25.11320682 -1.15430652 -25.11320682 -1.15430652 -22.7890625 -3.55859375 C-14.94591373 -7.59221312 -7.01529982 -4.42268902 0 0 Z " fill="#FE8E20" transform="translate(355.6015625,190.68359375)"/>
<path d="M0 0 C2 2 2 2 2.8125 5.6875 C3.85823604 10.35505355 6.12873804 13.22202374 9 17 C9 17.66 9 18.32 9 19 C9.66 19.2475 10.32 19.495 11 19.75 C14.76360907 21.31817045 18.3711424 23.14505046 22 25 C22 25.33 22 25.66 22 26 C15.5407844 25.73086602 11.56959506 23.56959506 7 19 C2.23766627 12.91823181 0.2480385 7.68919335 0 0 Z " fill="#FE9120" transform="translate(411,222)"/>
<path d="M0 0 C0.33 0 0.66 0 1 0 C1 4.29 1 8.58 1 13 C0.67 13 0.34 13 0 13 C-0.33 10.36 -0.66 7.72 -1 5 C-1.67546875 5.98742187 -2.3509375 6.97484375 -3.046875 7.9921875 C-3.94745892 9.28677689 -4.84852598 10.58103027 -5.75 11.875 C-6.1934375 12.52597656 -6.636875 13.17695313 -7.09375 13.84765625 C-11.23119703 19.74960275 -11.23119703 19.74960275 -15 21 C-13.79618552 18.50638429 -12.54571278 16.31856917 -11 14 C-10.34 14 -9.68 14 -9 14 C-8.61521484 12.91138672 -8.61521484 12.91138672 -8.22265625 11.80078125 C-6.93981777 8.86213848 -5.42765977 6.6928577 -3.4375 4.1875 C-2.81746094 3.39730469 -2.19742188 2.60710937 -1.55859375 1.79296875 C-0.78708984 0.90544922 -0.78708984 0.90544922 0 0 Z " fill="#FDB920" transform="translate(681,219)"/>
<path d="M0 0 C3.86539743 0.11713326 5.85313759 1.49327703 8.5625 4.0625 C14.45772295 10.36871888 16.60379563 16.44198557 17 25 C13.78802521 21.78802521 12.90951307 17.49239664 11.4140625 13.26171875 C8.83755745 7.31867533 5.38647719 4.42775821 0 1 C0 0.67 0 0.34 0 0 Z " fill="#FD8E20" transform="translate(369,69)"/>
<path d="M0 0 C0 3 0 3 -2.0546875 5.3046875 C-13.59503696 15.82206969 -13.59503696 15.82206969 -21 18 C-23.28515625 17.61328125 -23.28515625 17.61328125 -25 17 C-24.03320312 16.52691406 -23.06640625 16.05382812 -22.0703125 15.56640625 C-13.5619265 11.28540226 -6.72995798 6.84080435 0 0 Z " fill="#FDAA1B" transform="translate(564,214)"/>
<path d="M0 0 C4.66861981 1.60483806 9.09258167 3.97490194 13 7 C13 7.66 13 8.32 13 9 C13.556875 9.2475 14.11375 9.495 14.6875 9.75 C21.5314164 13.44941427 21.5314164 13.44941427 22.64453125 17.1328125 C22.76183594 17.74898437 22.87914062 18.36515625 23 19 C22.01902344 18.14019531 21.03804688 17.28039062 20.02734375 16.39453125 C15.32152911 12.3597902 10.34017885 8.72609602 5.34570312 5.06054688 C4.65541016 4.54943359 3.96511719 4.03832031 3.25390625 3.51171875 C2.62814697 3.05240967 2.0023877 2.59310059 1.35766602 2.11987305 C0.90963623 1.75031494 0.46160645 1.38075684 0 1 C0 0.67 0 0.34 0 0 Z " fill="#FD9022" transform="translate(332,198)"/>
<path d="M0 0 C2.92126026 1.46063013 3.02003179 3.40463271 4.125 6.4375 C6.71617558 12.93489223 10.37203305 17.80932739 15 23 C14.01 23.33 13.02 23.66 12 24 C0 8.41747573 0 8.41747573 0 0 Z " fill="#FD8F28" transform="translate(276,225)"/>
<path d="M0 0 C2 1 2 1 3.3125 4.3125 C4.89442164 8.07824518 6.34080917 9.94170516 10 12 C13.64010157 12.89847359 17.28506134 13.50554232 21 14 C17.47288223 16.02671801 15.02801913 16.19590108 10.95703125 15.53125 C6.43359506 14.30333119 4.04810379 11.33289674 1.6875 7.5 C0 4 0 4 0 0 Z " fill="#FDA220" transform="translate(517,218)"/>
<path d="M0 0 C0.33 0 0.66 0 1 0 C2 9 3 18 4 27 C0.64910738 23.64910738 -0.22400367 19.60462527 -1 15 C-0.96054409 9.95457585 -0.55521192 5.01697521 0 0 Z " fill="#FE8E23" transform="translate(272,197)"/>
<path d="M0 0 C0.33 0 0.66 0 1 0 C1.12873737 9.41213252 0.79822348 18.62087413 0 28 C-0.33 28 -0.66 28 -1 28 C-1.22882241 24.83447255 -1.42924138 21.66773036 -1.625 18.5 C-1.68945312 17.613125 -1.75390625 16.72625 -1.8203125 15.8125 C-2.1575002 10.08030906 -1.68231076 5.49640463 0 0 Z " fill="#FE8F27" transform="translate(104,278)"/>
<path d="M0 0 C1.45606519 4.52092968 0.27032841 7.51648796 -1 12 C0.65 12.33 2.3 12.66 4 13 C3.01 14.485 3.01 14.485 2 16 C0.35 15.67 -1.3 15.34 -3 15 C-2.5547115 9.72684667 -1.91626837 4.98229776 0 0 Z " fill="#FD992B" transform="translate(438,185)"/>
<path d="M0 0 C-0.598125 0.28875 -1.19625 0.5775 -1.8125 0.875 C-4.19327792 2.04742026 -4.19327792 2.04742026 -7 4 C-10.5625 4.75 -10.5625 4.75 -14 5 C-14.66 4.34 -15.32 3.68 -16 3 C-15.30132812 2.79503906 -14.60265625 2.59007812 -13.8828125 2.37890625 C-12.97273438 2.10949219 -12.06265625 1.84007812 -11.125 1.5625 C-10.22007812 1.29566406 -9.31515625 1.02882812 -8.3828125 0.75390625 C-3.07978723 -0.92393617 -3.07978723 -0.92393617 0 0 Z " fill="#FE9D2B" transform="translate(467,244)"/>
<path d="M0 0 C1.43410153 3.78819273 0.51009497 6.06521279 -0.9375 9.75 C-1.31777344 10.73484375 -1.69804687 11.7196875 -2.08984375 12.734375 C-2.39019531 13.48203125 -2.69054687 14.2296875 -3 15 C-3.33 15 -3.66 15 -4 15 C-3.63495936 9.33557626 -2.9445679 4.99296295 0 0 Z " fill="#FD922B" transform="translate(282,121)"/>
<path d="M0 0 C0.886875 0.78375 1.77375 1.5675 2.6875 2.375 C5.30720519 4.57156991 7.71715601 5.93790341 11 7 C10.67 7.66 10.34 8.32 10 9 C5.61633881 7.80445604 2.84621677 6.6125059 0 3 C0 2.01 0 1.02 0 0 Z " fill="#FD9028" transform="translate(107,316)"/>
<path d="M0 0 C0.75 1.625 0.75 1.625 1 4 C-2.01157407 9.68852881 -2.01157407 9.68852881 -5.14453125 10.67578125 C-5.75683594 10.78277344 -6.36914062 10.88976562 -7 11 C-6.57847656 10.45730469 -6.15695313 9.91460937 -5.72265625 9.35546875 C-5.17480469 8.64003906 -4.62695312 7.92460937 -4.0625 7.1875 C-3.51722656 6.47980469 -2.97195312 5.77210938 -2.41015625 5.04296875 C-0.83143752 2.95874948 -0.83143752 2.95874948 0 0 Z " fill="#FD8B1D" transform="translate(134,312)"/>
<path d="M0 0 C0.8125 1.6875 0.8125 1.6875 1 4 C-1.1613627 6.51185394 -3.01962439 8.50981219 -6 10 C-4.6302836 6.00499382 -2.74277578 3.19990508 0 0 Z " fill="#FD9F43" transform="translate(430,159)"/>
<path d="M0 0 C0.66 0.99 1.32 1.98 2 3 C0.71937515 4.7074998 -0.61767557 6.37373596 -2 8 C-2.66 8 -3.32 8 -4 8 C-4 7.34 -4 6.68 -4 6 C-3.34 6 -2.68 6 -2 6 C-1.34 4.02 -0.68 2.04 0 0 Z " fill="#FD992B" transform="translate(447,163)"/>
<path d="" fill="#FEAF3A" transform="translate(0,0)"/>
<path d="" fill="#FBB463" transform="translate(0,0)"/>
<path d="" fill="#FEC47C" transform="translate(0,0)"/>
<path d="M0 0 C2 1 2 1 2 1 Z " fill="#FEA044" transform="translate(339,258)"/>
<path d="M0 0 C2 1 2 1 2 1 Z " fill="#F7BA36" transform="translate(692,250)"/>
<path d="" fill="#F6BA37" transform="translate(0,0)"/>
<path d="M0 0 C2 1 2 1 2 1 Z " fill="#F0B839" transform="translate(832,249)"/>
<path d="M0 0 C2 1 2 1 2 1 Z " fill="#FD9F40" transform="translate(416,241)"/>
<path d="M0 0 C2 1 2 1 2 1 Z " fill="#FEAF34" transform="translate(543,227)"/>
<path d="" fill="#FFAD5A" transform="translate(0,0)"/>
<path d="" fill="#FFA041" transform="translate(0,0)"/>
<path d="" fill="#FA9E3E" transform="translate(0,0)"/>
<path d="" fill="#FDBF31" transform="translate(0,0)"/>
<path d="" fill="#FFBD31" transform="translate(0,0)"/>
<path d="" fill="#FF9E40" transform="translate(0,0)"/>
<path d="M0 0 C2 1 2 1 2 1 Z " fill="#FEBC35" transform="translate(628,81)"/>
<path d="" fill="#97793D" transform="translate(0,0)"/>
<path d="" fill="#B19258" transform="translate(0,0)"/>
<path d="" fill="#D7B78B" transform="translate(0,0)"/>
<path d="" fill="#B0935A" transform="translate(0,0)"/>
<path d="" fill="#C3925F" transform="translate(0,0)"/>
<path d="" fill="#B49458" transform="translate(0,0)"/>
<path d="" fill="#F4B36E" transform="translate(0,0)"/>
<path d="" fill="#F5B26D" transform="translate(0,0)"/>
<path d="" fill="#AD9260" transform="translate(0,0)"/>
<path d="" fill="#B59558" transform="translate(0,0)"/>
<path d="" fill="#DDBA8E" transform="translate(0,0)"/>
<path d="" fill="#AE945E" transform="translate(0,0)"/>
<path d="" fill="#B49659" transform="translate(0,0)"/>
<path d="" fill="#F7B46E" transform="translate(0,0)"/>
<path d="" fill="#B99657" transform="translate(0,0)"/>
<path d="" fill="#F9B470" transform="translate(0,0)"/>
<path d="" fill="#BB9755" transform="translate(0,0)"/>
<path d="" fill="#E3C091" transform="translate(0,0)"/>
<path d="" fill="#F9B167" transform="translate(0,0)"/>
<path d="" fill="#BA9858" transform="translate(0,0)"/>
<path d="" fill="#B99959" transform="translate(0,0)"/>
<path d="" fill="#BE9956" transform="translate(0,0)"/>
<path d="" fill="#BF9A54" transform="translate(0,0)"/>
<path d="" fill="#E9C695" transform="translate(0,0)"/>
<path d="" fill="#F0CE9A" transform="translate(0,0)"/>
<path d="" fill="#C09D58" transform="translate(0,0)"/>
<path d="" fill="#F6D6A2" transform="translate(0,0)"/>
<path d="" fill="#FEBE76" transform="translate(0,0)"/>
<path d="" fill="#FCDEA9" transform="translate(0,0)"/>
<path d="" fill="#FADEAB" transform="translate(0,0)"/>
<path d="" fill="#FCDFAA" transform="translate(0,0)"/>
<path d="" fill="#FCE0AA" transform="translate(0,0)"/>
<path d="" fill="#FFC782" transform="translate(0,0)"/>
<path d="" fill="#FCCE8E" transform="translate(0,0)"/>
<path d="" fill="#FADCA8" transform="translate(0,0)"/>
<path d="" fill="#FCE1AB" transform="translate(0,0)"/>
<path d="" fill="#FDE1AC" transform="translate(0,0)"/>
<path d="" fill="#FADDA9" transform="translate(0,0)"/>
<path d="" fill="#F9A147" transform="translate(0,0)"/>
<path d="" fill="#DBAA4A" transform="translate(0,0)"/>
<path d="" fill="#DBAD4A" transform="translate(0,0)"/>
<path d="" fill="#F8E1AC" transform="translate(0,0)"/>
<path d="" fill="#F8E0AB" transform="translate(0,0)"/>
<path d="" fill="#FD9D43" transform="translate(0,0)"/>
<path d="" fill="#FBE0AE" transform="translate(0,0)"/>
<path d="" fill="#F9A753" transform="translate(0,0)"/>
<path d="" fill="#FCAA56" transform="translate(0,0)"/>
<path d="" fill="#FAA53E" transform="translate(0,0)"/>
<path d="" fill="#F7BB38" transform="translate(0,0)"/>
<path d="" fill="#FAB737" transform="translate(0,0)"/>
<path d="" fill="#FEAD58" transform="translate(0,0)"/>
<path d="" fill="#FABB33" transform="translate(0,0)"/>
<path d="" fill="#F9A73C" transform="translate(0,0)"/>
<path d="" fill="#FFA240" transform="translate(0,0)"/>
<path d="" fill="#F7BA34" transform="translate(0,0)"/>
<path d="" fill="#F8BC36" transform="translate(0,0)"/>
<path d="" fill="#F9BD34" transform="translate(0,0)"/>
<path d="" fill="#FCAC5F" transform="translate(0,0)"/>
<path d="" fill="#F8BC32" transform="translate(0,0)"/>
<path d="" fill="#FBBD34" transform="translate(0,0)"/>
<path d="" fill="#F8BB32" transform="translate(0,0)"/>
<path d="" fill="#FFAF59" transform="translate(0,0)"/>
<path d="" fill="#FFA245" transform="translate(0,0)"/>
<path d="" fill="#FCBD30" transform="translate(0,0)"/>
<path d="" fill="#FDA434" transform="translate(0,0)"/>
<path d="" fill="#FBBE33" transform="translate(0,0)"/>
<path d="" fill="#FFA338" transform="translate(0,0)"/>
<path d="" fill="#FCBD31" transform="translate(0,0)"/>
<path d="" fill="#FEC031" transform="translate(0,0)"/>
<path d="" fill="#FEA23A" transform="translate(0,0)"/>
<path d="" fill="#FFBD30" transform="translate(0,0)"/>
<path d="" fill="#FFA13B" transform="translate(0,0)"/>
<path d="" fill="#FEC031" transform="translate(0,0)"/>
<path d="" fill="#FEB036" transform="translate(0,0)"/>
<path d="" fill="#FEAD58" transform="translate(0,0)"/>
<path d="" fill="#FFB435" transform="translate(0,0)"/>
<path d="" fill="#FFC334" transform="translate(0,0)"/>
<path d="" fill="#FDBF32" transform="translate(0,0)"/>
<path d="" fill="#FEAB58" transform="translate(0,0)"/>
<path d="" fill="#FFBE33" transform="translate(0,0)"/>
<path d="" fill="#FFA639" transform="translate(0,0)"/>
<path d="" fill="#FFC031" transform="translate(0,0)"/>
<path d="" fill="#FDAD36" transform="translate(0,0)"/>
<path d="" fill="#FDA43B" transform="translate(0,0)"/>
<path d="" fill="#FEC333" transform="translate(0,0)"/>
<path d="" fill="#FEA235" transform="translate(0,0)"/>
<path d="" fill="#FE9E44" transform="translate(0,0)"/>
<path d="" fill="#F9BE35" transform="translate(0,0)"/>
<path d="" fill="#FFC332" transform="translate(0,0)"/>
<path d="" fill="#FF9F46" transform="translate(0,0)"/>
<path d="" fill="#FDC033" transform="translate(0,0)"/>
<path d="" fill="#FFBF32" transform="translate(0,0)"/>
<path d="" fill="#FCA33C" transform="translate(0,0)"/>
<path d="" fill="#F9BC33" transform="translate(0,0)"/>
<path d="" fill="#FEA53F" transform="translate(0,0)"/>
<path d="" fill="#FFA83A" transform="translate(0,0)"/>
<path d="" fill="#FCE4B0" transform="translate(0,0)"/>
<path d="" fill="#FEAF3A" transform="translate(0,0)"/>
<path d="" fill="#FAE4B0" transform="translate(0,0)"/>
<path d="" fill="#FEC133" transform="translate(0,0)"/>
<path d="" fill="#FFBC31" transform="translate(0,0)"/>
<path d="" fill="#FDBF33" transform="translate(0,0)"/>
<path d="" fill="#FBE2AE" transform="translate(0,0)"/>
<path d="" fill="#FFC332" transform="translate(0,0)"/>
<path d="" fill="#FDB236" transform="translate(0,0)"/>
<path d="" fill="#FFC232" transform="translate(0,0)"/>
<path d="" fill="#FEB036" transform="translate(0,0)"/>
<path d="" fill="#FFA23D" transform="translate(0,0)"/>
<path d="" fill="#FFA53C" transform="translate(0,0)"/>
<path d="" fill="#FEBE34" transform="translate(0,0)"/>
<path d="" fill="#FFBC31" transform="translate(0,0)"/>
<path d="" fill="#FFBB31" transform="translate(0,0)"/>
<path d="" fill="#FFAE36" transform="translate(0,0)"/>
<path d="" fill="#FFA241" transform="translate(0,0)"/>
<path d="" fill="#FABD33" transform="translate(0,0)"/>
<path d="" fill="#FCBD31" transform="translate(0,0)"/>
<path d="" fill="#FEB237" transform="translate(0,0)"/>
<path d="" fill="#FBBC33" transform="translate(0,0)"/>
<path d="" fill="#FFAD5B" transform="translate(0,0)"/>
<path d="" fill="#FFAF5D" transform="translate(0,0)"/>
<path d="" fill="#F8BA34" transform="translate(0,0)"/>
<path d="" fill="#F9BD34" transform="translate(0,0)"/>
<path d="" fill="#F7BA33" transform="translate(0,0)"/>
<path d="" fill="#ECB435" transform="translate(0,0)"/>
<path d="" fill="#F8BB35" transform="translate(0,0)"/>
<path d="" fill="#FDB632" transform="translate(0,0)"/>
<path d="" fill="#EDB536" transform="translate(0,0)"/>
<path d="" fill="#FFB234" transform="translate(0,0)"/>
<path d="" fill="#FBA43E" transform="translate(0,0)"/>
<path d="" fill="#FEA340" transform="translate(0,0)"/>
<path d="" fill="#F4BA33" transform="translate(0,0)"/>
<path d="" fill="#FBA33F" transform="translate(0,0)"/>
<path d="" fill="#FEB732" transform="translate(0,0)"/>
<path d="" fill="#FFBC32" transform="translate(0,0)"/>
<path d="" fill="#FDBE31" transform="translate(0,0)"/>
<path d="" fill="#FFB235" transform="translate(0,0)"/>
<path d="" fill="#FDAD5A" transform="translate(0,0)"/>
<path d="" fill="#FFBC34" transform="translate(0,0)"/>
<path d="" fill="#FDB136" transform="translate(0,0)"/>
<path d="" fill="#FFB339" transform="translate(0,0)"/>
<path d="" fill="#FCBB32" transform="translate(0,0)"/>
<path d="" fill="#FCBD34" transform="translate(0,0)"/>
<path d="" fill="#FEA040" transform="translate(0,0)"/>
<path d="" fill="#FDAD58" transform="translate(0,0)"/>
<path d="" fill="#FEAB55" transform="translate(0,0)"/>
<path d="" fill="#FCAB54" transform="translate(0,0)"/>
<path d="" fill="#FFB636" transform="translate(0,0)"/>
<path d="" fill="#FEBF33" transform="translate(0,0)"/>
<path d="" fill="#FCA837" transform="translate(0,0)"/>
<path d="" fill="#FFA140" transform="translate(0,0)"/>
<path d="" fill="#FEAA39" transform="translate(0,0)"/>
<path d="" fill="#FDA146" transform="translate(0,0)"/>
<path d="" fill="#F9A653" transform="translate(0,0)"/>
<path d="" fill="#FCBA31" transform="translate(0,0)"/>
<path d="" fill="#FFA045" transform="translate(0,0)"/>
<path d="" fill="#FFBE32" transform="translate(0,0)"/>
<path d="" fill="#FC9D40" transform="translate(0,0)"/>
<path d="" fill="#FDBB34" transform="translate(0,0)"/>
<path d="" fill="#FDB035" transform="translate(0,0)"/>
<path d="" fill="#B78E3D" transform="translate(0,0)"/>
<path d="" fill="#D6A43C" transform="translate(0,0)"/>
<path d="" fill="#FCA44C" transform="translate(0,0)"/>
<path d="" fill="#FBA44D" transform="translate(0,0)"/>
<path d="" fill="#FAA14C" transform="translate(0,0)"/>
<path d="" fill="#FAA751" transform="translate(0,0)"/>
<path d="" fill="#FE9F43" transform="translate(0,0)"/>
<path d="" fill="#FADDAB" transform="translate(0,0)"/>
<path d="" fill="#C2963C" transform="translate(0,0)"/>
<path d="" fill="#FBA24C" transform="translate(0,0)"/>
<path d="" fill="#FCA04A" transform="translate(0,0)"/>
<path d="" fill="#A1813D" transform="translate(0,0)"/>
<path d="" fill="#F7D9A7" transform="translate(0,0)"/>
<path d="" fill="#AA873E" transform="translate(0,0)"/>
<path d="" fill="#BD913C" transform="translate(0,0)"/>
<path d="" fill="#F3AD32" transform="translate(0,0)"/>
<path d="" fill="#F6A43D" transform="translate(0,0)"/>
<path d="" fill="#FA9F44" transform="translate(0,0)"/>
<path d="" fill="#B8903C" transform="translate(0,0)"/>
<path d="" fill="#E7AB38" transform="translate(0,0)"/>
<path d="" fill="#F1AD36" transform="translate(0,0)"/>
<path d="" fill="#F2D5A3" transform="translate(0,0)"/>
<path d="" fill="#A5803C" transform="translate(0,0)"/>
<path d="" fill="#F6993D" transform="translate(0,0)"/>
<path d="" fill="#8B733B" transform="translate(0,0)"/>
<path d="" fill="#F79B41" transform="translate(0,0)"/>
<path d="" fill="#F89C44" transform="translate(0,0)"/>
<path d="" fill="#EDCF9F" transform="translate(0,0)"/>
<path d="" fill="#AD893D" transform="translate(0,0)"/>
<path d="" fill="#E6C89A" transform="translate(0,0)"/>
<path d="" fill="#98793C" transform="translate(0,0)"/>
<path d="" fill="#846C3B" transform="translate(0,0)"/>
<path d="" fill="#A8843D" transform="translate(0,0)"/>
<path d="" fill="#C9993E" transform="translate(0,0)"/>
<path d="" fill="#E1C295" transform="translate(0,0)"/>
<path d="" fill="#A2803D" transform="translate(0,0)"/>
<path d="" fill="#C1933F" transform="translate(0,0)"/>
<path d="" fill="#DABD91" transform="translate(0,0)"/>
<path d="" fill="#7A683B" transform="translate(0,0)"/>
<path d="" fill="#836A3B" transform="translate(0,0)"/>
<path d="" fill="#9E7C3D" transform="translate(0,0)"/>
<path d="" fill="#D5BB8F" transform="translate(0,0)"/>
<path d="" fill="#9D7D3E" transform="translate(0,0)"/>
<path d="" fill="#D5B78D" transform="translate(0,0)"/>
<path d="" fill="#8A703C" transform="translate(0,0)"/>
<path d="" fill="#A8823E" transform="translate(0,0)"/>
<path d="" fill="#B48B3F" transform="translate(0,0)"/>
<path d="" fill="#CFB289" transform="translate(0,0)"/>
<path d="" fill="#866D3C" transform="translate(0,0)"/>
<path d="" fill="#A3803F" transform="translate(0,0)"/>
<path d="" fill="#A4813D" transform="translate(0,0)"/>
<path d="" fill="#94773E" transform="translate(0,0)"/>
<path d="" fill="#7D663D" transform="translate(0,0)"/>
<path d="" fill="#AE8640" transform="translate(0,0)"/>
<path d="" fill="#CAAD86" transform="translate(0,0)"/>
</svg>
